<svg width="51" height="59" viewBox="0 0 51 59" fill="none" xmlns="http://www.w3.org/2000/svg">
<path d="M25.0224 58.418L0.516122 44.7658V23.8944L0 23.6088V16.6445L25.0224 30.57V58.418Z" fill="#04C1C4"/>
<path opacity="0.1" d="M25.0224 58.418L0.516122 44.7658V23.8944L0 23.6088V16.6445L25.0224 30.57V58.418Z" fill="black"/>
<path opacity="0.15" d="M25.0219 37.5314L16.2478 32.649L16.2446 25.6755L15.6425 25.35L15.6393 32.3112L0.515625 23.8945V24.8956L15.6393 33.3092L15.6361 53.1949L16.251 53.5357L16.2478 33.647L25.0219 38.5294V37.5314Z" fill="black"/>
<path d="M25.0234 58.418L49.3959 44.864V23.9681L50.0459 23.6088V16.6445L25.0234 30.57V58.418Z" fill="#04C1C4"/>
<path opacity="0.1" d="M49.3959 23.9688L34.4061 32.3118L34.4029 25.3506L33.8007 25.676V32.6495L25.0234 37.5319V38.5299L33.7975 33.6506L33.7943 53.5363L34.4092 53.1954L34.4061 33.3159L49.3959 24.9821V23.9688Z" fill="black"/>
<path d="M50.0448 16.6451L25.0224 2.72266L0 16.6451L25.0224 30.5706L50.0448 16.6451Z" fill="#04C1C4"/>
<path opacity="0.4" d="M50.0448 16.6451L25.0224 2.72266L0 16.6451L25.0224 30.5706L50.0448 16.6451Z" fill="white"/>
<path opacity="0.15" d="M20.8116 16.9213L8.85156 11.7319L9.38361 11.4248L21.4456 16.648" fill="black"/>
<path opacity="0.15" d="M29.2309 16.9213L41.191 11.7319L40.6557 11.4248L28.5938 16.648" fill="black"/>
<path opacity="0.15" d="M34.4019 25.3503L25.5227 18.9971V18.994L25.0225 18.6348L25.0193 18.6378V18.6348L24.516 18.994L24.5191 18.9971L15.6367 25.3503L16.2421 25.6758L25.0193 19.3564L33.7998 25.6758L34.4019 25.3503Z" fill="black"/>
<path d="M40.6627 21.8682V50.407L34.4087 53.8891L34.4023 25.3503L40.6627 21.8682Z" fill="#37474F"/>
<path d="M34.4079 53.8893L33.793 53.5362L34.4079 53.1953V53.8893Z" fill="#263238"/>
<path d="M9.38281 21.8682V50.407L15.6368 53.8891L15.6432 25.3503L9.38281 21.8682Z" fill="#263238"/>
<path d="M15.6367 53.8893L16.2516 53.5362L15.6367 53.1953V53.8893Z" fill="black"/>
<path d="M15.6432 25.35L25.0258 18.6375L28.6036 16.6447L40.6624 11.4245L34.4084 7.94238L25.0258 14.6549L21.4512 16.6477L9.38281 21.8679L15.6432 25.35Z" fill="#455A64"/>
<path d="M21.4516 16.6484L20.8145 16.9217L22.9204 17.8214L24.5229 18.9944L25.0263 18.6352L23.462 17.5174L21.4516 16.6484Z" fill="#263238"/>
<path d="M34.402 25.35L23.4615 17.5167L9.38281 11.4245L15.64 7.94238L26.5901 15.7757L40.6624 21.8679L34.402 25.35Z" fill="#455A64"/>
<path d="M23.0604 15.5029C23.0604 15.5029 15.7104 21.3833 3.70898 20.0445C3.70898 20.0445 8.8065 23.2594 15.0382 22.5317C15.0382 22.5317 14.143 24.7242 8.89251 27.3926C8.89251 27.3926 22.009 27.5093 25.3989 17.0137L23.0604 15.5029Z" fill="#37474F"/>
<path d="M16.1504 26.0472C19.7824 24.7329 23.7457 22.1413 25.3896 17.0225L23.0511 15.5117C21.6302 16.5499 20.0765 17.4075 18.4283 18.0634C18.4283 18.0634 20.9771 19.1382 23.5768 18.4749C22.9876 20.1831 22.0174 21.7462 20.7344 23.0544C19.4514 24.3626 17.8868 25.3841 16.1504 26.0472Z" fill="#263238"/>
<path d="M6.76428 7.81061C6.76428 7.81061 8.22345 6.16473 12.6997 6.90783C15.4014 7.35922 19.9891 10.393 22.2575 15.4474C22.5443 16.0861 23.1878 16.301 23.5319 16.7309C23.6118 16.8272 23.6992 16.9175 23.7932 17.0011L25.2109 17.0165C25.2109 12.2938 22.4614 7.5281 19.8617 4.77064C17.262 2.01318 12.9801 0.665152 9.92792 0.56075C8.84558 0.512543 7.76681 0.712493 6.78021 1.14418C5.94868 3.37656 5.6046 5.59051 6.76428 7.81061Z" fill="#37474F"/>
<path d="M21.9453 14.8116C21.9453 14.8116 24.4941 13.9825 23.4459 10.0459C24.5457 12.2213 25.1445 14.6001 25.2013 17.0194L23.7836 17.004C23.6896 16.9204 23.6023 16.8301 23.5224 16.7338C23.1783 16.3039 22.5347 16.089 22.248 15.4503C22.1556 15.2292 22.0504 15.0204 21.9453 14.8116Z" fill="#263238"/>
<path d="M9.37631 10.835C8.30244 10.006 7.41377 8.97613 6.76384 7.80734C5.60097 5.58724 5.94505 3.37329 6.76384 1.13477C4.13862 2.25249 2.57113 5.54118 1.98492 8.19731C1.66632 9.68352 1.62809 10.9609 1.88934 11.5751C2.62529 13.2455 6.93587 19.9948 25.3984 17.0224L25.3793 15.1524C20.7565 14.876 12.6833 13.5188 9.37631 10.835Z" fill="#37474F"/>
<path d="M6.76428 7.81061C6.76428 7.81061 6.54445 2.60889 9.92792 0.56075C8.84558 0.512543 7.76681 0.712493 6.78021 1.14418C5.94868 3.37656 5.6046 5.59051 6.76428 7.81061Z" fill="#263238"/>
<path d="M26.985 15.5029C26.985 15.5029 34.3349 21.3833 46.3364 20.0445C46.3364 20.0445 41.2389 23.2594 35.0072 22.5317C35.0072 22.5317 35.9024 24.7242 41.1529 27.3926C41.1529 27.3926 28.0363 27.5093 24.6465 17.0137L26.985 15.5029Z" fill="#37474F"/>
<path d="M26.4701 18.4689C29.0571 19.1322 31.6186 18.0574 31.6186 18.0574L31.1375 17.8486L31.0642 17.8179L30.6373 17.6245L30.5417 17.5815L30.153 17.3942C30.1202 17.3797 30.0883 17.3633 30.0574 17.3451C29.9332 17.2867 29.8153 17.2253 29.6974 17.167L29.6019 17.1178L29.2833 16.9428L29.1909 16.8937L28.8914 16.7278L28.8086 16.6818L28.5282 16.5283L28.4517 16.4853L28.2096 16.3379L28.1395 16.2949L27.9261 16.1598L27.8623 16.1199L27.6775 16.0001L27.6234 15.9633L27.4673 15.8589L27.4195 15.8251L27.2952 15.7391L27.2538 15.7084L27.1614 15.6408L27.12 15.6101L27.0627 15.5702L27.0244 15.5426L27.0053 15.5241L26.983 15.5088L26.2184 16.0032L24.6445 17.0196C28.0312 27.5151 41.1477 27.3984 41.1509 27.3984C34.4031 27.0914 27.3144 22.1568 26.4701 18.4689Z" fill="#263238"/>
<path d="M43.2806 7.81061C43.2806 7.81061 41.8214 6.16473 37.3452 6.90783C34.6435 7.35922 30.0557 10.393 27.7874 15.4474C27.5006 16.0861 26.8571 16.301 26.513 16.7309C26.4331 16.8272 26.3457 16.9175 26.2517 17.0011L24.834 17.0165C24.834 12.2938 27.5835 7.5281 30.1832 4.77064C32.7829 2.01318 37.0648 0.665152 40.117 0.56075C41.1993 0.512543 42.2781 0.712493 43.2647 1.14418C44.0962 3.37656 44.4562 5.59051 43.2806 7.81061Z" fill="#37474F"/>
<path d="M28.0998 14.8116C28.0998 14.8116 25.551 13.9825 26.5992 10.0459C25.4994 12.2213 24.9006 14.6001 24.8438 17.0194L26.2615 17.004C26.3555 16.9204 26.4428 16.8301 26.5227 16.7338C26.8668 16.3039 27.5104 16.089 27.7971 15.4503C27.8895 15.2292 27.9947 15.0204 28.0998 14.8116Z" fill="#263238"/>
<path d="M40.6686 10.835C41.7425 10.006 42.6311 8.97613 43.2811 7.80734C44.4439 5.58724 44.0999 3.37329 43.2811 1.13477C45.9063 2.25249 47.4738 5.54118 48.06 8.19731C48.3786 9.68352 48.4168 10.9609 48.1556 11.5751C47.4196 13.2455 43.109 19.9948 24.6465 17.0224L24.6656 15.1524C29.2884 14.876 37.3616 13.5188 40.6686 10.835Z" fill="#37474F"/>
<path d="M43.2808 7.81061C43.2808 7.81061 43.5007 2.60889 40.1172 0.56075C41.1995 0.512543 42.2783 0.712493 43.2649 1.14418C44.0964 3.37656 44.4564 5.59051 43.2808 7.81061Z" fill="#263238"/>
<path d="M27.5707 15.7826C27.5505 15.602 27.4809 15.4297 27.3689 15.2835C27.2569 15.1373 27.1067 15.0223 26.9335 14.9505C26.3203 14.743 25.6709 14.6533 25.0219 14.6864C24.3546 14.6533 23.6877 14.758 23.0658 14.9935C22.9064 15.0674 22.7696 15.1797 22.6685 15.3196C22.5675 15.4595 22.5057 15.6221 22.4891 15.7918C22.4222 16.3507 22.3808 17.2965 22.7631 17.8338C23.393 18.3538 24.1992 18.6325 25.0283 18.6169C25.8539 18.6341 26.6567 18.355 27.2808 17.8338C27.6599 17.2873 27.6217 16.3415 27.5707 15.7826Z" fill="#455A64"/>
</svg>
