<svg width="63" height="63" viewBox="0 0 63 63" fill="none" xmlns="http://www.w3.org/2000/svg">
<circle cx="31.5" cy="31.5" r="31.5" fill="#04C1C4" fill-opacity="0.09"/>
<path d="M32.0004 36.2C28.6587 36.2 25.4538 34.8725 23.0908 32.5095C20.7279 30.1466 19.4004 26.9417 19.4004 23.6C19.4004 20.2583 20.7279 17.0534 23.0908 14.6905C25.4538 12.3275 28.6587 11 32.0004 11C35.3421 11 38.547 12.3275 40.9099 14.6905C43.2729 17.0534 44.6004 20.2583 44.6004 23.6C44.6004 26.9417 43.2729 30.1466 40.9099 32.5095C38.547 34.8725 35.3421 36.2 32.0004 36.2ZM32.0004 29.9C33.6713 29.9 35.2737 29.2363 36.4552 28.0548C37.6366 26.8733 38.3004 25.2709 38.3004 23.6C38.3004 21.9291 37.6366 20.3267 36.4552 19.1452C35.2737 17.9637 33.6713 17.3 32.0004 17.3C30.3295 17.3 28.7271 17.9637 27.5456 19.1452C26.3641 20.3267 25.7004 21.9291 25.7004 23.6C25.7004 25.2709 26.3641 26.8733 27.5456 28.0548C28.7271 29.2363 30.3295 29.9 32.0004 29.9ZM40.4004 35.675V53L32.0004 44.6L23.6004 53V35.675C26.0619 37.3999 28.9947 38.3253 32.0004 38.3253C35.0061 38.3253 37.9389 37.3999 40.4004 35.675Z" fill="#03A6A9"/>
</svg>
