<svg width="89" height="96" viewBox="0 0 89 96" fill="none" xmlns="http://www.w3.org/2000/svg">
<g id="signing-a-contract/bro">
<g id="Contract">
<g id="Vector">
<path d="M72.1396 73.4201C73.5595 73.7593 75.1092 72.5907 75.9837 70.713C76.6492 69.3039 76.8822 67.9134 77.1537 66.3193C77.4588 64.5803 88.0109 1.62282 88.1214 1H34.679L23.8002 65.8753L23.3582 68.493C23.2664 69.0378 23.104 69.559 22.8776 70.0347L22.5557 70.7222C22.2155 71.4449 21.7275 72.0343 21.1448 72.4264C20.5621 72.8186 19.9069 72.9985 19.2502 72.9467C18.5935 72.8949 17.9603 72.6134 17.4194 72.1327C16.8785 71.652 16.4505 70.9904 16.1817 70.2197C15.7385 68.9465 15.0213 67.8621 14.1143 67.0942C13.2073 66.3262 12.1484 65.9066 11.0619 65.8846H10.8625C9.59821 65.9151 8.37751 66.4828 7.39151 67.4988C6.4055 68.5147 5.70986 69.9217 5.41349 71.4992L1 95H54.4352L58.4907 73.417" fill="white"/>
<path d="M72.1396 73.4201C73.5595 73.7593 75.1092 72.5907 75.9837 70.713C76.6492 69.3039 76.8822 67.9134 77.1537 66.3193C77.4588 64.5804 88.0109 1.62282 88.1214 1H34.679L23.8002 65.8753L23.3582 68.493C23.2664 69.0378 23.104 69.559 22.8776 70.0347L22.5557 70.7222C22.2155 71.4449 21.7275 72.0343 21.1448 72.4264C20.5621 72.8186 19.9069 72.9985 19.2502 72.9467C18.5935 72.8949 17.9603 72.6134 17.4194 72.1327C16.8785 71.652 16.4505 70.9904 16.1817 70.2197C15.7385 68.9465 15.0213 67.8621 14.1143 67.0942C13.2073 66.3262 12.1484 65.9066 11.0619 65.8846H10.8625C9.59821 65.9151 8.37751 66.4828 7.39151 67.4988C6.4055 68.5147 5.70986 69.9217 5.41349 71.4992L1 95H54.4352L58.4907 73.417" stroke="#263238" stroke-linecap="round" stroke-linejoin="round"/>
</g>
<path id="Vector_2" d="M51.6036 8.32219L51.5268 8.84018H51.0462L51.1279 8.28827C51.2072 7.77028 51.0943 7.45887 50.7267 7.45887C50.3591 7.45887 50.1549 7.7672 50.0756 8.28827L49.6191 11.3376C49.5398 11.8556 49.66 12.167 50.0204 12.167C50.3807 12.167 50.5946 11.8587 50.6714 11.3376L50.7844 10.5884H51.2649L51.1592 11.3037C51.027 12.1763 50.6186 12.7529 49.9267 12.7529C49.2347 12.7529 49.0065 12.1763 49.1362 11.3037L49.5855 8.32219C49.7152 7.44962 50.1237 6.87305 50.8108 6.87305C51.4979 6.87305 51.7238 7.44962 51.6036 8.32219Z" fill="#263238"/>
<path id="Vector_3" d="M52.0099 8.32219C52.1421 7.44037 52.5673 6.87305 53.2544 6.87305C53.9416 6.87305 54.2011 7.44037 54.0689 8.32219L53.622 11.3037C53.4899 12.1763 53.0646 12.7529 52.3703 12.7529C51.676 12.7529 51.4309 12.1763 51.5606 11.3037L52.0099 8.32219ZM52.0508 11.3376C51.9715 11.8649 52.0988 12.167 52.4592 12.167C52.8196 12.167 53.0358 11.8587 53.1151 11.3376L53.574 8.28827C53.6509 7.77028 53.5307 7.45887 53.1656 7.45887C52.8004 7.45887 52.5865 7.7672 52.5097 8.28827L52.0508 11.3376Z" fill="#263238"/>
<path id="Vector_4" d="M54.3282 12.6948H53.8789L54.7438 6.92285H55.3805L55.7937 11.0884L56.4208 6.92285H56.8629L55.9956 12.6855H55.4766L55.0273 8.02667L54.3282 12.6948Z" fill="#263238"/>
<path id="Vector_5" d="M57.1618 12.6943L57.9402 7.51438H57.1113L57.2002 6.93164H59.3505L59.2616 7.51438H58.4351L57.6567 12.6943H57.1618Z" fill="#263238"/>
<path id="Vector_6" d="M60.6907 6.92285C61.3971 6.92285 61.6229 7.38226 61.4956 8.23941L61.4235 8.70807C61.3298 9.34323 61.0967 9.73789 60.6883 9.89513C61.0751 10.0524 61.1688 10.481 61.0727 11.0976L60.9358 11.9948C60.8892 12.2212 60.8892 12.4592 60.9358 12.6855H60.4264C60.39 12.4532 60.3983 12.2129 60.4505 11.9856L60.585 11.0822C60.6835 10.4285 60.4769 10.225 60.0588 10.225H59.7057L59.3357 12.6917H58.8359L59.6888 6.92285H60.6907ZM60.1549 9.63922C60.2455 9.65608 60.3378 9.64861 60.426 9.61729C60.5142 9.58597 60.5963 9.53148 60.6673 9.45727C60.7382 9.38307 60.7963 9.29076 60.838 9.18621C60.8797 9.08166 60.904 8.96713 60.9093 8.8499L60.991 8.29799C61.0703 7.77692 60.9622 7.50559 60.5898 7.50559H60.1093L59.7729 9.64847L60.1549 9.63922Z" fill="#263238"/>
<path id="Vector_7" d="M62.0322 11.5478L61.6934 12.6948H61.2129L62.9499 6.92285H63.6707V12.6855H63.171V11.5478H62.0322ZM62.1787 10.9959H63.1806V7.66901L62.1787 10.9959Z" fill="#263238"/>
<path id="Vector_8" d="M66.6923 8.32219L66.6154 8.84018H66.1349L66.219 8.28827C66.2959 7.77028 66.183 7.45887 65.8178 7.45887C65.4526 7.45887 65.2436 7.7672 65.1667 8.28827L64.7078 11.3376C64.6309 11.8556 64.7486 12.167 65.109 12.167C65.4694 12.167 65.6832 11.8587 65.7601 11.3376L65.873 10.5884H66.3535L66.2574 11.3037C66.1253 12.1763 65.7193 12.7529 65.0249 12.7529C64.3306 12.7529 64.0951 12.164 64.2225 11.3037L64.6717 8.32219C64.8015 7.44962 65.2099 6.87305 65.8971 6.87305C66.5842 6.87305 66.8244 7.44962 66.6923 8.32219Z" fill="#263238"/>
<path id="Vector_9" d="M67.1418 12.6943L67.9202 7.51438H67.0938L67.1802 6.93164H69.3305L69.244 7.51438H68.4224L67.6439 12.6943H67.1418Z" fill="#263238"/>
<path id="Vector_10" d="M36.0566 15.5137H83.1923" stroke="#263238" stroke-width="0.5" stroke-miterlimit="10"/>
<path id="Vector_11" d="M70.6523 22.2158H81.6825" stroke="#263238" stroke-width="0.5" stroke-miterlimit="10"/>
<path id="Vector_12" d="M53.3535 22.2158H69.4915" stroke="#263238" stroke-width="0.5" stroke-miterlimit="10"/>
<path id="Vector_13" d="M42.5566 22.2158H52.4263" stroke="#263238" stroke-width="0.5" stroke-miterlimit="10"/>
<path id="Vector_14" d="M34.5469 22.2158H41.6296" stroke="#263238" stroke-width="0.5" stroke-miterlimit="10"/>
<path id="Vector_15" d="M69.2578 25.6416H81.1" stroke="#263238" stroke-width="0.5" stroke-miterlimit="10"/>
<path id="Vector_16" d="M42.4434 25.6416H68.1002" stroke="#263238" stroke-width="0.5" stroke-miterlimit="10"/>
<path id="Vector_17" d="M33.9668 25.6416H41.3955" stroke="#263238" stroke-width="0.5" stroke-miterlimit="10"/>
<path id="Vector_18" d="M66.8223 29.0693H80.5216" stroke="#263238" stroke-width="0.5" stroke-miterlimit="10"/>
<path id="Vector_19" d="M46.2734 29.0693H65.8927" stroke="#263238" stroke-width="0.5" stroke-miterlimit="10"/>
<path id="Vector_20" d="M33.3867 29.0693H45.3442" stroke="#263238" stroke-width="0.5" stroke-miterlimit="10"/>
<path id="Vector_21" d="M71.3496 32.4951H79.9411" stroke="#263238" stroke-width="0.5" stroke-miterlimit="10"/>
<path id="Vector_22" d="M58.2305 32.4951H70.188" stroke="#263238" stroke-width="0.5" stroke-miterlimit="10"/>
<path id="Vector_23" d="M45.5781 32.4951H57.0719" stroke="#263238" stroke-width="0.5" stroke-miterlimit="10"/>
<path id="Vector_24" d="M36.0566 32.4951H44.5329" stroke="#263238" stroke-width="0.5" stroke-miterlimit="10"/>
<path id="Vector_25" d="M32.8047 32.4951H35.0102" stroke="#263238" stroke-width="0.5" stroke-miterlimit="10"/>
<path id="Vector_26" d="M77.3887 35.9248H79.3612" stroke="#263238" stroke-width="0.5" stroke-miterlimit="10"/>
<path id="Vector_27" d="M57.7656 35.9248H75.8785" stroke="#263238" stroke-width="0.5" stroke-miterlimit="10"/>
<path id="Vector_28" d="M43.9492 35.9248H56.6035" stroke="#263238" stroke-width="0.5" stroke-miterlimit="10"/>
<path id="Vector_29" d="M32.2266 35.9248H42.6753" stroke="#263238" stroke-width="0.5" stroke-miterlimit="10"/>
<path id="Vector_30" d="M74.832 39.3506H78.7794" stroke="#263238" stroke-width="0.5" stroke-miterlimit="10"/>
<path id="Vector_31" d="M63.3379 39.3506H73.7866" stroke="#263238" stroke-width="0.5" stroke-miterlimit="10"/>
<path id="Vector_32" d="M59.8555 39.3506H62.1787" stroke="#263238" stroke-width="0.5" stroke-miterlimit="10"/>
<path id="Vector_33" d="M43.1367 39.3506H59.2747" stroke="#263238" stroke-width="0.5" stroke-miterlimit="10"/>
<path id="Vector_34" d="M31.6445 39.3506H42.2086" stroke="#263238" stroke-width="0.5" stroke-miterlimit="10"/>
<path id="Vector_35" d="M31.0645 42.7754H78.2001" stroke="#263238" stroke-width="0.5" stroke-miterlimit="10"/>
<path id="Vector_36" d="M75.1816 46.2041H77.6202" stroke="#263238" stroke-width="0.5" stroke-miterlimit="10"/>
<path id="Vector_37" d="M64.498 46.2041H73.671" stroke="#263238" stroke-width="0.5" stroke-miterlimit="10"/>
<path id="Vector_38" d="M49.1758 46.2041H62.8751" stroke="#263238" stroke-width="0.5" stroke-miterlimit="10"/>
<path id="Vector_39" d="M45.8066 46.2041H48.1299" stroke="#263238" stroke-width="0.5" stroke-miterlimit="10"/>
<path id="Vector_40" d="M35.1289 46.2041H44.5325" stroke="#263238" stroke-width="0.5" stroke-miterlimit="10"/>
<path id="Vector_41" d="M30.4844 46.2041H33.735" stroke="#263238" stroke-width="0.5" stroke-miterlimit="10"/>
<path id="Vector_42" d="M65.1973 49.6299H77.0395" stroke="#263238" stroke-width="0.5" stroke-miterlimit="10"/>
<path id="Vector_43" d="M52.6562 49.6299H63.6864" stroke="#263238" stroke-width="0.5" stroke-miterlimit="10"/>
<path id="Vector_44" d="M43.0234 49.6299H51.4972" stroke="#263238" stroke-width="0.5" stroke-miterlimit="10"/>
<path id="Vector_45" d="M29.9023 49.6299H41.8599" stroke="#263238" stroke-width="0.5" stroke-miterlimit="10"/>
<path id="Vector_46" d="M72.7441 53.0586H76.4585" stroke="#263238" stroke-width="0.5" stroke-miterlimit="10"/>
<path id="Vector_47" d="M60.4375 53.0586H71.4652" stroke="#263238" stroke-width="0.5" stroke-miterlimit="10"/>
<path id="Vector_48" d="M52.541 53.0586H59.6237" stroke="#263238" stroke-width="0.5" stroke-miterlimit="10"/>
<path id="Vector_49" d="M46.1562 53.0586H51.3818" stroke="#263238" stroke-width="0.5" stroke-miterlimit="10"/>
<path id="Vector_50" d="M40.1191 53.0586H45.227" stroke="#263238" stroke-width="0.5" stroke-miterlimit="10"/>
<path id="Vector_51" d="M32.457 53.0586H38.843" stroke="#263238" stroke-width="0.5" stroke-miterlimit="10"/>
<path id="Vector_52" d="M29.3223 53.0586H31.4101" stroke="#263238" stroke-width="0.5" stroke-miterlimit="10"/>
<path id="Vector_53" d="M69.6074 56.4844H75.8781" stroke="#263238" stroke-width="0.5" stroke-miterlimit="10"/>
<path id="Vector_54" d="M58.5801 56.4844H68.2143" stroke="#263238" stroke-width="0.5" stroke-miterlimit="10"/>
<path id="Vector_55" d="M48.2441 56.4844H57.184" stroke="#263238" stroke-width="0.5" stroke-miterlimit="10"/>
<path id="Vector_56" d="M36.1738 56.4844H46.8532" stroke="#263238" stroke-width="0.5" stroke-miterlimit="10"/>
<path id="Vector_57" d="M28.7402 56.4844H35.0085" stroke="#263238" stroke-width="0.5" stroke-miterlimit="10"/>
<path id="Vector_58" d="M69.2578 59.9102H75.2954" stroke="#263238" stroke-width="0.5" stroke-miterlimit="10"/>
<path id="Vector_59" d="M58.8105 59.9102H68.0988" stroke="#263238" stroke-width="0.5" stroke-miterlimit="10"/>
<path id="Vector_60" d="M48.0137 59.9102H57.1866" stroke="#263238" stroke-width="0.5" stroke-miterlimit="10"/>
<path id="Vector_61" d="M40.584 59.9102H46.97" stroke="#263238" stroke-width="0.5" stroke-miterlimit="10"/>
<path id="Vector_62" d="M32.9219 59.9102H39.4232" stroke="#263238" stroke-width="0.5" stroke-miterlimit="10"/>
<path id="Vector_63" d="M28.1602 59.9102H32.2253" stroke="#263238" stroke-width="0.5" stroke-miterlimit="10"/>
<path id="Vector_64" d="M71.2344 63.3379H74.7157" stroke="#263238" stroke-width="0.5" stroke-miterlimit="10"/>
<path id="Vector_65" d="M59.3926 63.3379H70.0743" stroke="#263238" stroke-width="0.5" stroke-miterlimit="10"/>
<path id="Vector_66" d="M49.9883 63.3379H57.9984" stroke="#263238" stroke-width="0.5" stroke-miterlimit="10"/>
<path id="Vector_67" d="M43.834 63.3379H48.7088" stroke="#263238" stroke-width="0.5" stroke-miterlimit="10"/>
<path id="Vector_68" d="M33.9668 63.3379H42.0922" stroke="#263238" stroke-width="0.5" stroke-miterlimit="10"/>
<path id="Vector_69" d="M27.582 63.3379H33.1536" stroke="#263238" stroke-width="0.5" stroke-miterlimit="10"/>
<path id="Vector_70" d="M63.9301 65.876V65.8976C62.7329 66.0258 61.5978 66.6353 60.6863 67.6396C59.7749 68.6438 59.1335 69.9914 58.8535 71.4906L54.4352 95.0007H1L5.41589 71.4906C5.71226 69.9131 6.4079 68.5061 7.39391 67.4902C8.37991 66.4742 9.60061 65.9065 10.8649 65.876H63.9301Z" fill="white" stroke="#263238" stroke-linecap="round" stroke-linejoin="round"/>
<path id="Vector_71" d="M72.1391 73.4209H58.4902L58.853 71.4908C59.1353 69.9931 59.7774 68.6472 60.6884 67.6435C61.5994 66.6398 62.7333 66.0291 63.9296 65.8977C64.0858 65.8823 64.2419 65.873 64.3981 65.873C66.5604 65.873 68.7828 67.3931 69.6213 70.2112C70.2123 72.203 71.1421 73.1804 72.1391 73.4209Z" fill="#263238" stroke="#263238" stroke-linecap="round" stroke-linejoin="round"/>
<path id="Vector_72" d="M55.4268 71.4101C55.4268 71.6382 54.9919 71.8078 54.9607 72.0267C54.9295 72.2456 55.2826 72.6095 55.2202 72.816C55.1577 73.0226 54.7036 72.9856 54.6147 73.1799C54.5258 73.3741 54.7661 73.8613 54.6532 74.0339C54.5402 74.2066 54.1222 73.9908 53.9901 74.1418C53.8579 74.2929 53.9901 74.8479 53.8459 74.9774C53.7018 75.1069 53.3366 74.7616 53.1828 74.8664C53.029 74.9712 53.0531 75.554 52.8897 75.6372C52.7263 75.7205 52.4284 75.2857 52.2602 75.3474C52.092 75.4091 52.02 75.9856 51.8518 76.0257C51.6836 76.0658 51.453 75.5632 51.2776 75.5848C51.1022 75.6064 50.9532 76.1521 50.7778 76.1521C50.6025 76.1521 50.4463 75.6033 50.2757 75.5848C50.1051 75.5663 49.8721 76.0658 49.7039 76.0257C49.5357 75.9856 49.4637 75.4091 49.2931 75.3474C49.1225 75.2857 48.8246 75.7205 48.666 75.6372C48.5074 75.554 48.5218 74.9712 48.3729 74.8664C48.2239 74.7616 47.8491 75.1038 47.7098 74.9774C47.5704 74.851 47.6906 74.2868 47.5632 74.1418C47.4359 73.9969 47.0106 74.2004 46.9001 74.0339C46.7896 73.8674 47.0275 73.3679 46.941 73.1768C46.8545 72.9856 46.398 73.0226 46.3355 72.816C46.2731 72.6095 46.6262 72.2456 46.5926 72.0267C46.559 71.8078 46.1289 71.6413 46.1289 71.4101C46.1289 71.1788 46.5614 71.0154 46.5926 70.7934C46.6238 70.5714 46.2731 70.2137 46.3355 70.0041C46.398 69.7944 46.8497 69.8376 46.941 69.6433C47.0323 69.4491 46.7872 68.9619 46.9001 68.7893C47.013 68.6166 47.4335 68.8324 47.5632 68.6814C47.693 68.5303 47.5632 67.9753 47.7098 67.8458C47.8563 67.7163 48.2167 68.0616 48.3729 67.9537C48.5291 67.8458 48.5026 67.2692 48.666 67.1829C48.8294 67.0965 49.1249 67.5375 49.2931 67.4758C49.4613 67.4141 49.5333 66.8376 49.7039 66.7975C49.8745 66.7574 50.1003 67.26 50.2757 67.2384C50.4511 67.2168 50.6001 66.668 50.7778 66.668C50.9556 66.668 51.107 67.2168 51.2776 67.2384C51.4482 67.26 51.6836 66.7543 51.8518 66.7975C52.02 66.8406 52.092 67.4141 52.2602 67.4758C52.4284 67.5375 52.7407 67.1027 52.8897 67.1829C53.0386 67.263 53.0314 67.852 53.1828 67.9537C53.3342 68.0554 53.7042 67.7194 53.8459 67.8458C53.9877 67.9722 53.8651 68.5334 53.9901 68.6814C54.115 68.8293 54.5451 68.6197 54.6532 68.7893C54.7613 68.9588 54.5258 69.4553 54.6147 69.6433C54.7036 69.8314 55.1577 69.8006 55.2202 70.0072C55.2826 70.2137 54.9271 70.5745 54.9607 70.7934C54.9943 71.0123 55.4268 71.185 55.4268 71.4101Z" fill="#872BFF"/>
<path id="Vector_73" d="M50.7794 74.9623C52.7286 74.9623 54.3087 73.372 54.3087 71.4103C54.3087 69.4487 52.7286 67.8584 50.7794 67.8584C48.8301 67.8584 47.25 69.4487 47.25 71.4103C47.25 73.372 48.8301 74.9623 50.7794 74.9623Z" fill="white"/>
<path id="Vector_74" d="M50.7785 74.2856C52.3562 74.2856 53.6351 72.9977 53.6351 71.4089C53.6351 69.8202 52.3562 68.5322 50.7785 68.5322C49.2008 68.5322 47.9219 69.8202 47.9219 71.4089C47.9219 72.9977 49.2008 74.2856 50.7785 74.2856Z" fill="#872BFF"/>
<path id="Vector_75" d="M52.7898 88.7197H29.5859" stroke="#263238" stroke-width="0.55" stroke-linecap="round" stroke-linejoin="round"/>
<path id="Vector_76" d="M22.2057 88.7197H5.58008" stroke="#263238" stroke-linecap="round" stroke-linejoin="round"/>
<path id="Vector_77" d="M34.6191 88.0903C34.6191 88.0903 38.999 81.8652 40.2483 75.7572C41.4976 69.6492 38.4248 72.9607 37.1971 79.7346C35.9694 86.5086 35.9694 88.2445 37.1971 86.9834C38.182 85.8987 39.0319 84.627 39.7174 83.2126C39.8903 82.8611 40.0345 82.5343 40.145 82.2568C40.6255 80.9957 39.0398 81.785 38.6698 84.3041C38.2999 86.8231 40.5126 83.2033 41.1253 81.9423C41.7379 80.6812 42.968 80.0522 41.9854 83.3606C41.0027 86.6689 39.53 86.0369 40.8802 83.8323C42.2304 81.6278 43.7056 77.0491 43.8281 79.5774C43.9507 82.1057 43.4581 84.93 42.4731 85.7255C41.488 86.5209 44.3134 82.1026 45.1736 82.4171C46.0337 82.7316 46.4013 83.9927 45.5411 84.9392C44.681 85.8858 44.681 82.7316 51.1895 83.0461" stroke="#263238" stroke-linecap="round" stroke-linejoin="round"/>
</g>
</g>
</svg>
