<svg width="64" height="74" viewBox="0 0 64 74" fill="none" xmlns="http://www.w3.org/2000/svg">
<path d="M31.9999 74L0.660041 56.5409V29.8496L0 29.4844V20.5781L31.9999 38.3867V74Z" fill="#047CF3"/>
<path opacity="0.1" d="M31.9999 74L0.660041 56.5409V29.8496L0 29.4844V20.5781L31.9999 38.3867V74Z" fill="black"/>
<path opacity="0.15" d="M32 47.2881L20.7792 41.0443L20.7752 32.1262L20.0051 31.71L20.001 40.6123L0.660156 29.8486V31.1288L20.001 41.8886L19.997 67.3193L20.7833 67.7552L20.7792 42.3205L32 48.5643V47.2881Z" fill="black"/>
<path d="M32 74L63.1687 56.6665V29.9438L63.9999 29.4844V20.5781L32 38.3867V74Z" fill="#047CF3"/>
<path opacity="0.1" d="M63.1687 29.9434L43.9989 40.6128L43.9949 31.7105L43.2248 32.1267V41.0448L32 47.2886V48.5648L43.2207 42.3249L43.2167 67.7557L44.003 67.3198L43.9989 41.8969L63.1687 31.2392V29.9434Z" fill="black"/>
<path d="M63.9997 20.5781L31.9998 2.77344L0 20.5781L31.9998 38.3867L63.9997 20.5781Z" fill="#047CF3"/>
<path opacity="0.4" d="M63.9997 20.5781L31.9998 2.77344L0 20.5781L31.9998 38.3867L63.9997 20.5781Z" fill="white"/>
<path opacity="0.15" d="M26.6154 20.9315L11.3203 14.295L12.0007 13.9023L27.4262 20.582" fill="black"/>
<path opacity="0.15" d="M37.3832 20.9315L52.6783 14.295L51.9938 13.9023L36.5684 20.582" fill="black"/>
<path opacity="0.15" d="M43.9959 31.7112L32.6407 23.5864V23.5825L32.001 23.123L31.997 23.127V23.123L31.3532 23.5825L31.3573 23.5864L19.998 31.7112L20.7722 32.1275L31.997 24.0459L43.2258 32.1275L43.9959 31.7112Z" fill="black"/>
<path d="M52.0022 27.2568V63.7536L44.0042 68.2068L43.9961 31.71L52.0022 27.2568Z" fill="#37474F"/>
<path d="M44.0031 68.2078L43.2168 67.7562L44.0031 67.3203V68.2078Z" fill="#263238"/>
<path d="M12 27.2568V63.7536L19.9979 68.2068L20.0061 31.71L12 27.2568Z" fill="#263238"/>
<path d="M19.998 68.2078L20.7844 67.7562L19.998 67.3203V68.2078Z" fill="black"/>
<path d="M20.0061 31.7109L32.005 23.1267L36.5805 20.5781L52.0019 13.9023L44.0039 9.44922L32.005 18.0335L27.4336 20.582L12 27.2578L20.0061 31.7109Z" fill="#455A64"/>
<path d="M27.434 20.583L26.6191 20.9325L29.3123 22.0831L31.3617 23.5832L32.0054 23.1237L30.0049 21.6943L27.434 20.583Z" fill="#263238"/>
<path d="M43.9958 31.7109L30.0045 21.6934L12 13.9023L20.002 9.44922L34.0055 19.4668L52.0019 27.2578L43.9958 31.7109Z" fill="#455A64"/>
<path d="M29.4917 19.1172C29.4917 19.1172 20.0922 26.6372 4.74414 24.9251C4.74414 24.9251 11.2631 29.0366 19.2325 28.1059C19.2325 28.1059 18.0876 30.9097 11.3731 34.3222C11.3731 34.3222 28.1471 34.4715 32.4822 21.0492L29.4917 19.1172Z" fill="#37474F"/>
<path d="M20.6543 32.6031C25.299 30.9224 30.3675 27.6081 32.4699 21.0619L29.4793 19.1299C27.6621 20.4576 25.6752 21.5543 23.5675 22.3932C23.5675 22.3932 26.8269 23.7676 30.1516 22.9194C29.398 25.1039 28.1573 27.1028 26.5166 28.7758C24.8758 30.4488 22.8749 31.7552 20.6543 32.6031Z" fill="#263238"/>
<path d="M8.65164 9.28046C8.65164 9.28046 10.5177 7.17563 16.2421 8.12595C19.6972 8.7032 25.5642 12.583 28.4652 19.0467C28.8318 19.8635 29.6549 20.1384 30.0949 20.6882C30.1971 20.8113 30.3088 20.9268 30.429 21.0337L32.2421 21.0534C32.2421 15.0138 28.7259 8.91918 25.4012 5.39281C22.0766 1.86644 16.6007 0.142517 12.6975 0.00900132C11.3133 -0.052648 9.93372 0.203058 8.67202 0.755117C7.60861 3.60999 7.16858 6.4413 8.65164 9.28046Z" fill="#37474F"/>
<path d="M28.0645 18.2333C28.0645 18.2333 31.3239 17.173 29.9835 12.1387C31.3899 14.9207 32.1558 17.9628 32.2284 21.0567L30.4153 21.0371C30.2951 20.9301 30.1835 20.8146 30.0812 20.6915C29.6412 20.1417 28.8182 19.8669 28.4515 19.0501C28.3334 18.7673 28.1989 18.5003 28.0645 18.2333Z" fill="#263238"/>
<path d="M11.9926 13.1473C10.6193 12.0872 9.48283 10.7701 8.65166 9.27539C7.16453 6.43622 7.60456 3.60491 8.65166 0.742188C5.29441 2.17159 3.28983 6.37732 2.54015 9.77411C2.13272 11.6747 2.08383 13.3083 2.41792 14.0937C3.35909 16.23 8.87167 24.8613 32.4825 21.0601L32.458 18.6686C26.5462 18.3152 16.2218 16.5795 11.9926 13.1473Z" fill="#37474F"/>
<path d="M8.65164 9.28046C8.65164 9.28046 8.37051 2.62826 12.6975 0.00900132C11.3133 -0.0526481 9.93372 0.203058 8.67202 0.755117C7.60861 3.60999 7.16858 6.4413 8.65164 9.28046Z" fill="#263238"/>
<path d="M34.5081 19.1172C34.5081 19.1172 43.9076 26.6372 59.2557 24.9251C59.2557 24.9251 52.7367 29.0366 44.7673 28.1059C44.7673 28.1059 45.9122 30.9097 52.6267 34.3222C52.6267 34.3222 35.8527 34.4715 31.5176 21.0492L34.5081 19.1172Z" fill="#37474F"/>
<path d="M33.8502 22.9106C37.1586 23.7588 40.4344 22.3843 40.4344 22.3843L39.8191 22.1173L39.7254 22.078L39.1795 21.8307L39.0572 21.7757L38.5602 21.5361C38.5182 21.5176 38.4773 21.4966 38.4379 21.4733C38.279 21.3987 38.1283 21.3202 37.9775 21.2455L37.8553 21.1827L37.4479 20.9589L37.3297 20.896L36.9467 20.684L36.8408 20.6251L36.4822 20.4287L36.3845 20.3738L36.0748 20.1853L35.9852 20.1303L35.7122 19.9575L35.6307 19.9065L35.3944 19.7533L35.3251 19.7062L35.1255 19.5727L35.0644 19.5295L34.9055 19.4195L34.8525 19.3803L34.7343 19.2939L34.6814 19.2546L34.608 19.2035L34.5592 19.1682L34.5347 19.1446L34.5062 19.125L33.5283 19.7572L31.5156 21.0571C35.8466 34.4793 52.6207 34.33 52.6248 34.33C43.9953 33.9373 34.9299 27.6268 33.8502 22.9106Z" fill="#263238"/>
<path d="M55.3502 9.28046C55.3502 9.28046 53.4841 7.17563 47.7597 8.12595C44.3046 8.7032 38.4376 12.583 35.5367 19.0467C35.17 19.8635 34.347 20.1384 33.9069 20.6882C33.8047 20.8113 33.693 20.9268 33.5728 21.0337L31.7598 21.0534C31.7598 15.0138 35.2759 8.91918 38.6006 5.39281C41.9252 1.86644 47.4012 0.142517 51.3044 0.00900132C52.6885 -0.052648 54.0681 0.203058 55.3298 0.755117C56.3932 3.60999 56.8536 6.4413 55.3502 9.28046Z" fill="#37474F"/>
<path d="M35.9355 18.2333C35.9355 18.2333 32.676 17.173 34.0164 12.1387C32.61 14.9207 31.8442 17.9628 31.7715 21.0567L33.5846 21.0371C33.7048 20.9301 33.8165 20.8146 33.9187 20.6915C34.3587 20.1417 35.1817 19.8669 35.5484 19.0501C35.6665 18.7673 35.801 18.5003 35.9355 18.2333Z" fill="#263238"/>
<path d="M52.0074 13.1473C53.3807 12.0872 54.5172 10.7701 55.3484 9.27539C56.8355 6.43622 56.3955 3.60491 55.3484 0.742188C58.7056 2.17159 60.7102 6.37732 61.4599 9.77411C61.8673 11.6747 61.9162 13.3083 61.5821 14.0937C60.6409 16.23 55.1284 24.8613 31.5176 21.0601L31.542 18.6686C37.4539 18.3152 47.7783 16.5795 52.0074 13.1473Z" fill="#37474F"/>
<path d="M55.3505 9.28046C55.3505 9.28046 55.6316 2.62826 51.3047 0.00900132C52.6888 -0.0526481 54.0684 0.203058 55.3301 0.755117C56.3935 3.60999 56.8539 6.4413 55.3505 9.28046Z" fill="#263238"/>
<path d="M35.2577 19.4759C35.2319 19.2449 35.1428 19.0246 34.9997 18.8376C34.8565 18.6506 34.6643 18.5036 34.4429 18.4117C33.6587 18.1464 32.8282 18.0317 31.9982 18.074C31.1449 18.0316 30.2919 18.1655 29.4966 18.4667C29.2928 18.5612 29.1178 18.7049 28.9886 18.8837C28.8594 19.0626 28.7803 19.2707 28.7592 19.4877C28.6736 20.2024 28.6206 21.4119 29.1095 22.0991C29.915 22.7641 30.946 23.1205 32.0064 23.1005C33.0622 23.1225 34.0888 22.7657 34.887 22.0991C35.3718 21.4001 35.3229 20.1906 35.2577 19.4759Z" fill="#455A64"/>
</svg>
