<svg width="319" height="370" viewBox="0 0 319 370" fill="none" xmlns="http://www.w3.org/2000/svg">
<path d="M67.2002 259.164L67.4732 258.745L67.2002 259.164ZM7 259.164L7.32172 259.546L7 259.164ZM85.3024 322.005L85.4214 321.52L85.3024 322.005ZM182.128 140.584L181.632 140.645L182.128 140.584ZM49.098 7.25039L48.8835 6.79875L49.098 7.25039ZM156.869 214.901L156.748 215.386L156.869 214.901ZM316.871 4.49834L313.248 6.37887L315.128 10.0024L318.752 8.12191L316.871 4.49834ZM10.1027 366.838C10.3051 366.65 10.317 366.333 10.1292 366.131C9.94141 365.928 9.62505 365.917 9.4226 366.104L10.1027 366.838ZM14.9629 360.866C14.7639 361.058 14.7578 361.374 14.9492 361.573C15.1407 361.772 15.4572 361.778 15.6562 361.587L14.9629 360.866ZM21.0951 356.271C21.291 356.076 21.2922 355.76 21.0976 355.564C20.9031 355.368 20.5865 355.367 20.3905 355.561L21.0951 356.271ZM25.7398 350.166C25.5469 350.364 25.5508 350.681 25.7484 350.873C25.946 351.066 26.2626 351.062 26.4554 350.865L25.7398 350.166ZM31.7423 345.358C31.9319 345.157 31.9228 344.841 31.722 344.651C31.5212 344.462 31.2048 344.471 31.0152 344.672L31.7423 345.358ZM36.1807 339.103C35.9947 339.307 36.0095 339.624 36.2136 339.809C36.4178 339.995 36.734 339.981 36.92 339.777L36.1807 339.103ZM41.9939 334.096C42.1757 333.888 42.1547 333.572 41.9469 333.39C41.7391 333.208 41.4232 333.229 41.2413 333.437L41.9939 334.096ZM46.185 327.66C46.0079 327.872 46.0361 328.188 46.2479 328.365C46.4598 328.542 46.7751 328.514 46.9522 328.302L46.185 327.66ZM51.7661 322.392C51.9376 322.175 51.9012 321.861 51.6848 321.689C51.4683 321.518 51.1538 321.554 50.9823 321.771L51.7661 322.392ZM55.6095 315.746C55.4449 315.968 55.4911 316.281 55.7128 316.446C55.9345 316.61 56.2477 316.564 56.4123 316.342L55.6095 315.746ZM60.8446 310.14C61.0007 309.912 60.9425 309.601 60.7147 309.445C60.4869 309.289 60.1757 309.347 60.0196 309.574L60.8446 310.14ZM64.1598 303.22C64.0149 303.455 64.0881 303.763 64.3232 303.908C64.5583 304.052 64.8664 303.979 65.0112 303.744L64.1598 303.22ZM68.8225 297.111C68.9519 296.867 68.859 296.564 68.615 296.435C68.3711 296.306 68.0684 296.399 67.939 296.643L68.8225 297.111ZM71.1899 289.831C71.083 290.086 71.2028 290.379 71.4574 290.486C71.7121 290.593 72.0051 290.473 72.112 290.218L71.1899 289.831ZM74.6268 282.968C74.6979 282.701 74.5391 282.427 74.2722 282.356C74.0054 282.285 73.7315 282.444 73.6605 282.711L74.6268 282.968ZM74.8315 275.318C74.8222 275.594 75.0384 275.826 75.3143 275.835C75.5903 275.844 75.8216 275.628 75.831 275.352L74.8315 275.318ZM74.7506 267.692C74.6583 267.432 74.3725 267.295 74.1122 267.388C73.852 267.48 73.7158 267.766 73.8081 268.026L74.7506 267.692ZM69.8357 261.885C70.0342 262.077 70.3507 262.071 70.5427 261.873C70.7347 261.674 70.7294 261.358 70.5309 261.166L69.8357 261.885ZM64.0021 256.697C63.7585 256.567 63.4556 256.659 63.3255 256.902C63.1955 257.146 63.2875 257.449 63.5311 257.579L64.0021 256.697ZM56.3016 254.398C56.5616 254.491 56.8477 254.356 56.9407 254.096C57.0336 253.836 56.8981 253.549 56.638 253.456L56.3016 254.398ZM48.9084 251.249C48.6386 251.19 48.3722 251.361 48.3133 251.631C48.2543 251.901 48.4253 252.167 48.6951 252.226L48.9084 251.249ZM40.8752 251.016C41.1502 251.041 41.3937 250.839 41.4191 250.564C41.4445 250.289 41.2421 250.045 40.9672 250.02L40.8752 251.016ZM32.9321 249.79C32.6561 249.8 32.4406 250.032 32.4508 250.308C32.4609 250.584 32.6928 250.8 32.9688 250.79L32.9321 249.79ZM25.1145 251.638C25.386 251.588 25.5656 251.328 25.5155 251.056C25.4654 250.784 25.2047 250.605 24.9331 250.655L25.1145 251.638ZM17.1619 252.78C16.9032 252.877 16.7719 253.165 16.8685 253.423C16.9651 253.682 17.2531 253.814 17.5118 253.717L17.1619 252.78ZM10.4798 257.217C10.7117 257.067 10.7781 256.757 10.6282 256.525C10.4783 256.294 10.1688 256.227 9.93687 256.377L10.4798 257.217ZM3.70639 261.811C3.53588 262.028 3.57372 262.342 3.79093 262.513C4.00814 262.683 4.32245 262.645 4.49297 262.428L3.70639 261.811ZM1.80806 269.663C1.8089 269.387 1.58572 269.162 1.30958 269.162C1.03344 269.161 0.808903 269.384 0.808069 269.66L1.80806 269.663ZM3.23387 277.694C3.37282 277.932 3.67892 278.013 3.91755 277.874C4.15619 277.735 4.23699 277.429 4.09803 277.19L3.23387 277.694ZM9.0692 283.541C8.87675 283.343 8.5602 283.338 8.36216 283.531C8.16413 283.723 8.1596 284.04 8.35205 284.238L9.0692 283.541ZM14.5374 289.765C14.7538 289.936 15.0683 289.9 15.2398 289.683C15.4113 289.467 15.3749 289.152 15.1585 288.981L14.5374 289.765ZM21.7793 293.775C21.5497 293.621 21.2392 293.683 21.0859 293.913C20.9326 294.143 20.9945 294.453 21.2242 294.606L21.7793 293.775ZM28.2243 298.977C28.4624 299.117 28.7688 299.037 28.9085 298.799C29.0483 298.561 28.9685 298.254 28.7303 298.115L28.2243 298.977ZM35.8975 302.098C35.6533 301.969 35.3508 302.063 35.2219 302.307C35.093 302.551 35.1865 302.854 35.4307 302.982L35.8975 302.098ZM42.7886 306.688C43.0375 306.808 43.3362 306.703 43.4559 306.454C43.5756 306.205 43.471 305.906 43.2221 305.787L42.7886 306.688ZM50.6776 309.221C50.425 309.109 50.1298 309.224 50.0184 309.477C49.9069 309.729 50.0214 310.024 50.274 310.136L50.6776 309.221ZM57.8652 313.345C58.1211 313.448 58.4126 313.325 58.5162 313.069C58.6198 312.813 58.4963 312.521 58.2403 312.418L57.8652 313.345ZM65.8971 315.379C65.638 315.283 65.3505 315.416 65.255 315.675C65.1595 315.934 65.2921 316.222 65.5512 316.317L65.8971 315.379ZM73.3337 319.037C73.596 319.123 73.8786 318.981 73.965 318.718C74.0514 318.456 73.9088 318.173 73.6465 318.087L73.3337 319.037ZM81.4862 320.484C81.2202 320.41 80.9444 320.565 80.87 320.831C80.7957 321.097 80.951 321.373 81.217 321.447L81.4862 320.484ZM89.0544 323.296C89.3266 323.343 89.585 323.16 89.6315 322.888C89.678 322.616 89.495 322.357 89.2228 322.311L89.0544 323.296ZM96.8566 323.033C96.5805 323.028 96.3528 323.248 96.348 323.524C96.3432 323.8 96.5631 324.028 96.8392 324.033L96.8566 323.033ZM104.671 323.542C104.944 323.503 105.134 323.249 105.095 322.976C105.055 322.703 104.802 322.513 104.529 322.552L104.671 323.542ZM112.02 320.855C111.757 320.937 111.609 321.218 111.691 321.481C111.773 321.745 112.053 321.892 112.317 321.81L112.02 320.855ZM119.614 318.931C119.863 318.811 119.968 318.513 119.848 318.264C119.728 318.015 119.43 317.91 119.181 318.03L119.614 318.931ZM125.874 314.246C125.642 314.397 125.577 314.707 125.728 314.938C125.879 315.169 126.189 315.235 126.42 315.084L125.874 314.246ZM132.715 310.44C132.928 310.264 132.958 309.949 132.782 309.736C132.606 309.523 132.291 309.493 132.078 309.669L132.715 310.44ZM137.79 304.458C137.595 304.653 137.595 304.97 137.79 305.165C137.986 305.36 138.303 305.36 138.498 305.164L137.79 304.458ZM143.783 299.401C143.962 299.191 143.935 298.875 143.724 298.697C143.514 298.518 143.198 298.545 143.02 298.755L143.783 299.401ZM147.792 292.681C147.629 292.904 147.678 293.217 147.901 293.38C148.124 293.543 148.437 293.495 148.6 293.272L147.792 292.681ZM153.002 286.836C153.151 286.604 153.083 286.294 152.851 286.145C152.618 285.996 152.309 286.064 152.16 286.297L153.002 286.836ZM156.155 279.663C156.019 279.903 156.103 280.208 156.343 280.345C156.584 280.481 156.889 280.396 157.025 280.156L156.155 279.663ZM160.698 273.278C160.822 273.032 160.723 272.731 160.476 272.607C160.23 272.483 159.929 272.582 159.805 272.829L160.698 273.278ZM163.136 265.829C163.023 266.081 163.135 266.377 163.387 266.49C163.639 266.604 163.935 266.491 164.048 266.239L163.136 265.829ZM167.098 259.067C167.201 258.81 167.076 258.519 166.82 258.416C166.564 258.313 166.273 258.438 166.17 258.694L167.098 259.067ZM168.924 251.444C168.831 251.704 168.966 251.99 169.226 252.083C169.486 252.177 169.772 252.041 169.865 251.782L168.924 251.444ZM172.366 244.402C172.45 244.139 172.305 243.857 172.042 243.773C171.779 243.689 171.498 243.834 171.414 244.097L172.366 244.402ZM173.651 236.669C173.575 236.934 173.73 237.211 173.996 237.286C174.261 237.361 174.538 237.207 174.613 236.941L173.651 236.669ZM176.615 229.412C176.681 229.144 176.518 228.872 176.25 228.806C175.982 228.739 175.711 228.902 175.644 229.17L176.615 229.412ZM177.401 221.612C177.343 221.882 177.514 222.148 177.784 222.207C178.054 222.265 178.32 222.093 178.379 221.824L177.401 221.612ZM179.91 214.186C179.96 213.914 179.78 213.653 179.509 213.603C179.237 213.553 178.976 213.732 178.926 214.004L179.91 214.186ZM180.222 206.354C180.18 206.627 180.367 206.882 180.64 206.924C180.913 206.966 181.169 206.779 181.211 206.506L180.222 206.354ZM182.283 198.793C182.317 198.519 182.122 198.269 181.848 198.235C181.574 198.201 181.324 198.396 181.29 198.67L182.283 198.793ZM182.129 190.958C182.104 191.233 182.306 191.477 182.581 191.502C182.855 191.528 183.099 191.326 183.125 191.051L182.129 190.958ZM183.735 183.287C183.753 183.011 183.543 182.773 183.268 182.756C182.992 182.739 182.755 182.948 182.737 183.223L183.735 183.287ZM183.109 175.473C183.1 175.749 183.316 175.98 183.592 175.989C183.868 175.998 184.099 175.782 184.108 175.506L183.109 175.473ZM184.238 167.716C184.238 167.44 184.014 167.216 183.738 167.216C183.462 167.216 183.238 167.439 183.238 167.716L184.238 167.716ZM183.115 159.958C183.124 160.234 183.355 160.451 183.631 160.442C183.907 160.433 184.124 160.202 184.115 159.926L183.115 159.958ZM183.728 152.144C183.709 151.868 183.471 151.66 183.195 151.678C182.92 151.697 182.711 151.935 182.73 152.211L183.728 152.144ZM182.069 144.483C182.098 144.758 182.343 144.957 182.618 144.929C182.893 144.9 183.092 144.654 183.064 144.379L182.069 144.483ZM182.113 136.677C182.074 136.403 181.821 136.213 181.547 136.252C181.274 136.291 181.084 136.544 181.123 136.817L182.113 136.677ZM179.898 129.19C179.947 129.462 180.207 129.643 180.478 129.594C180.75 129.546 180.931 129.286 180.883 129.014L179.898 129.19ZM179.381 121.401C179.323 121.131 179.057 120.959 178.787 121.017C178.517 121.075 178.345 121.341 178.403 121.611L179.381 121.401ZM176.644 114.089C176.712 114.357 176.983 114.519 177.251 114.452C177.519 114.384 177.681 114.112 177.614 113.845L176.644 114.089ZM175.584 106.355C175.507 106.089 175.23 105.937 174.965 106.014C174.7 106.09 174.547 106.368 174.624 106.633L175.584 106.355ZM172.345 99.2513C172.431 99.5137 172.714 99.6567 172.976 99.5707C173.239 99.4846 173.382 99.2022 173.296 98.9398L172.345 99.2513ZM170.749 91.6093C170.654 91.3501 170.367 91.2171 170.107 91.3123C169.848 91.4075 169.715 91.6948 169.811 91.954L170.749 91.6093ZM167.019 84.7512C167.123 85.0068 167.415 85.1295 167.671 85.0251C167.927 84.9207 168.049 84.6288 167.945 84.3732L167.019 84.7512ZM164.881 77.2425C164.767 76.9908 164.471 76.8789 164.22 76.9926C163.968 77.1062 163.856 77.4024 163.97 77.6541L164.881 77.2425ZM160.66 70.6753C160.783 70.9225 161.083 71.0232 161.33 70.9001C161.577 70.7771 161.678 70.4769 161.555 70.2297L160.66 70.6753ZM157.962 63.349C157.829 63.1068 157.525 63.018 157.283 63.1506C157.041 63.2832 156.952 63.5871 157.085 63.8293L157.962 63.349ZM153.239 57.1329C153.381 57.3695 153.688 57.4458 153.925 57.3033C154.161 57.1609 154.238 56.8536 154.095 56.617L153.239 57.1329ZM149.948 50.0535C149.796 49.8233 149.485 49.7605 149.255 49.913C149.025 50.0656 148.962 50.3759 149.115 50.6061L149.948 50.0535ZM144.704 44.2726C144.867 44.4954 145.18 44.5439 145.403 44.3808C145.626 44.2177 145.674 43.9049 145.511 43.682L144.704 44.2726ZM140.773 37.5311C140.599 37.3167 140.284 37.2839 140.07 37.4578C139.856 37.6318 139.823 37.9467 139.997 38.1611L140.773 37.5311ZM134.982 32.3067C135.167 32.5114 135.484 32.5271 135.688 32.3417C135.893 32.1564 135.909 31.8402 135.723 31.6355L134.982 32.3067ZM130.344 26.033C130.147 25.8397 129.831 25.8428 129.637 26.0399C129.444 26.2371 129.447 26.5537 129.644 26.747L130.344 26.033ZM123.961 21.525C124.171 21.7049 124.486 21.6809 124.666 21.4714C124.846 21.2619 124.822 20.9462 124.613 20.7663L123.961 21.525ZM118.53 15.9126C118.308 15.7485 117.995 15.7956 117.831 16.0178C117.667 16.2399 117.714 16.553 117.936 16.717L118.53 15.9126ZM111.566 12.3995C111.801 12.5447 112.109 12.472 112.255 12.2371C112.4 12.0023 112.327 11.6941 112.092 11.5489L111.566 12.3995ZM105.301 7.76469C105.054 7.64178 104.754 7.74259 104.631 7.98987C104.508 8.23715 104.609 8.53725 104.856 8.66016L105.301 7.76469ZM97.7985 5.58921C98.0572 5.68588 98.3452 5.55456 98.4419 5.29589C98.5386 5.03722 98.4073 4.74916 98.1486 4.65249L97.7985 5.58921ZM90.7068 2.33989C90.4388 2.2734 90.1676 2.43676 90.1011 2.70477C90.0346 2.97279 90.198 3.24397 90.466 3.31047L90.7068 2.33989ZM82.9214 1.92235C83.1956 1.95523 83.4445 1.75961 83.4774 1.48543C83.5102 1.21126 83.3146 0.962339 83.0405 0.929462L82.9214 1.92235ZM75.2547 0.503359C74.9785 0.506296 74.7571 0.732522 74.76 1.00865C74.7629 1.28478 74.9892 1.50624 75.2653 1.5033L75.2547 0.503359ZM67.6164 2.08896C67.8898 2.04989 68.0797 1.79661 68.0406 1.52325C68.0016 1.24988 67.7483 1.05995 67.4749 1.09902L67.6164 2.08896ZM59.8387 2.6958C59.5725 2.76925 59.4162 3.04459 59.4897 3.31079C59.5631 3.57698 59.8385 3.73323 60.1046 3.65978L59.8387 2.6958ZM52.8553 6.13751C53.111 6.0331 53.2336 5.74122 53.1292 5.48557C53.0248 5.22993 52.7329 5.10733 52.4772 5.21174L52.8553 6.13751ZM45.2434 8.72184C45.0052 8.86146 44.9252 9.16779 45.0648 9.40603C45.2045 9.64427 45.5108 9.72421 45.749 9.58459L45.2434 8.72184ZM39.3596 14.1924C39.5664 14.0094 39.5857 13.6934 39.4027 13.4866C39.2197 13.2798 38.9037 13.2605 38.6969 13.4435L39.3596 14.1924ZM33.2479 19.4128C33.0848 19.6357 33.1332 19.9485 33.356 20.1116C33.5788 20.2747 33.8917 20.2263 34.0548 20.0035L33.2479 19.4128ZM30.1002 26.8286C30.2131 26.5766 30.1004 26.2807 29.8484 26.1678C29.5964 26.0549 29.3006 26.1676 29.1877 26.4196L30.1002 26.8286ZM26.596 34.0751C26.5312 34.3436 26.6963 34.6137 26.9647 34.6785C27.2332 34.7433 27.5033 34.5782 27.5681 34.3097L26.596 34.0751ZM26.3181 42.1424C26.3416 41.8673 26.1376 41.6252 25.8625 41.6017C25.5873 41.5781 25.3452 41.7821 25.3217 42.0573L26.3181 42.1424ZM25.141 50.1356C25.151 50.4116 25.3827 50.6272 25.6587 50.6173C25.9347 50.6073 26.1503 50.3755 26.1404 50.0996L25.141 50.1356ZM26.8282 58.0417C26.7915 57.768 26.5399 57.5758 26.2662 57.6125C25.9925 57.6492 25.8004 57.9008 25.8371 58.1745L26.8282 58.0417ZM27.2325 66.1067C27.2907 66.3766 27.5568 66.5482 27.8267 66.49C28.0966 66.4317 28.2683 66.1657 28.21 65.8958L27.2325 66.1067ZM30.1547 73.6299C30.0788 73.3644 29.8021 73.2107 29.5366 73.2865C29.2711 73.3624 29.1173 73.6391 29.1932 73.9047L30.1547 73.6299ZM31.6205 81.5617C31.7111 81.8225 31.996 81.9606 32.2568 81.87C32.5177 81.7794 32.6557 81.4945 32.5651 81.2336L31.6205 81.5617ZM35.3697 88.7059C35.2666 88.4497 34.9753 88.3257 34.7191 88.4288C34.463 88.532 34.3389 88.8232 34.4421 89.0794L35.3697 88.7059ZM37.6043 96.462C37.7184 96.7135 38.0147 96.825 38.2662 96.7109C38.5177 96.5969 38.6291 96.3005 38.515 96.049L37.6043 96.462ZM41.9602 103.265C41.8365 103.019 41.5361 102.919 41.2892 103.042C41.0423 103.166 40.9425 103.466 41.0662 103.713L41.9602 103.265ZM44.7955 110.835C44.9279 111.078 45.2317 111.167 45.474 111.035C45.7164 110.902 45.8056 110.599 45.6732 110.356L44.7955 110.835ZM49.628 117.321C49.4878 117.083 49.1813 117.004 48.9434 117.144C48.7055 117.284 48.6264 117.591 48.7666 117.828L49.628 117.321ZM52.9512 124.68C53.0987 124.913 53.4075 124.983 53.641 124.835C53.8744 124.688 53.944 124.379 53.7965 124.145L52.9512 124.68ZM58.1667 130.838C58.0123 130.609 57.7015 130.548 57.4726 130.703C57.2436 130.857 57.1831 131.168 57.3375 131.397L58.1667 130.838ZM61.9209 137.99C62.0817 138.214 62.3941 138.266 62.6185 138.105C62.843 137.944 62.8946 137.632 62.7338 137.408L61.9209 137.99ZM67.4862 143.848C67.3192 143.628 67.0055 143.585 66.7856 143.752C66.5657 143.919 66.5229 144.233 66.6899 144.453L67.4862 143.848ZM71.6348 150.778C71.8079 150.993 72.1227 151.027 72.3378 150.854C72.553 150.681 72.5871 150.366 72.414 150.151L71.6348 150.778ZM77.5145 156.314C77.3355 156.104 77.02 156.078 76.8097 156.257C76.5994 156.436 76.5741 156.752 76.7531 156.962L77.5145 156.314ZM82.0469 163.005C82.2318 163.21 82.5479 163.226 82.753 163.042C82.9581 162.857 82.9745 162.541 82.7896 162.335L82.0469 163.005ZM88.2345 168.202C88.0437 168.002 87.7272 167.995 87.5275 168.186C87.3279 168.376 87.3208 168.693 87.5116 168.893L88.2345 168.202ZM93.1454 174.611C93.3422 174.804 93.6588 174.802 93.8525 174.605C94.0462 174.408 94.0437 174.092 93.8469 173.898L93.1454 174.611ZM99.6268 179.409C99.4239 179.221 99.1076 179.234 98.9203 179.437C98.733 179.64 98.7457 179.956 98.9486 180.144L99.6268 179.409ZM104.945 185.491C105.155 185.672 105.47 185.648 105.651 185.439C105.831 185.229 105.807 184.914 105.598 184.734L104.945 185.491ZM111.763 189.844C111.547 189.672 111.232 189.708 111.06 189.923C110.888 190.139 110.923 190.454 111.139 190.626L111.763 189.844ZM117.53 195.51C117.753 195.673 118.066 195.624 118.229 195.402C118.392 195.179 118.343 194.866 118.12 194.703L117.53 195.51ZM124.68 199.271C124.45 199.119 124.14 199.182 123.988 199.413C123.835 199.643 123.898 199.953 124.129 200.106L124.68 199.271ZM130.95 204.364C131.189 204.503 131.495 204.423 131.635 204.185C131.774 203.947 131.694 203.641 131.456 203.501L130.95 204.364ZM138.462 207.325C138.215 207.201 137.915 207.3 137.79 207.546C137.666 207.793 137.765 208.094 138.011 208.218L138.462 207.325ZM145.328 211.578C145.583 211.683 145.876 211.561 145.981 211.306C146.086 211.051 145.965 210.759 145.709 210.653L145.328 211.578ZM153.202 213.359C152.938 213.278 152.658 213.426 152.577 213.69C152.496 213.954 152.644 214.234 152.908 214.315L153.202 213.359ZM160.85 216.227C161.122 216.271 161.379 216.086 161.423 215.813C161.467 215.541 161.281 215.284 161.009 215.24L160.85 216.227ZM169.075 215.832C168.799 215.836 168.578 216.062 168.582 216.339C168.585 216.615 168.812 216.836 169.088 216.832L169.075 215.832ZM177.311 216.027C177.583 215.977 177.763 215.717 177.714 215.445C177.664 215.174 177.404 214.993 177.132 215.043L177.311 216.027ZM184.978 212.986C184.717 213.075 184.577 213.36 184.667 213.621C184.756 213.882 185.04 214.022 185.301 213.932L184.978 212.986ZM192.922 210.759C193.17 210.638 193.272 210.338 193.151 210.09C193.029 209.842 192.729 209.74 192.482 209.861L192.922 210.759ZM199.588 205.883C199.354 206.03 199.284 206.338 199.431 206.572C199.578 206.806 199.886 206.876 200.12 206.729L199.588 205.883ZM206.9 202.033C207.12 201.867 207.163 201.553 206.997 201.333C206.83 201.113 206.517 201.069 206.296 201.236L206.9 202.033ZM212.633 196.066C212.425 196.247 212.404 196.563 212.586 196.771C212.768 196.979 213.083 197 213.291 196.818L212.633 196.066ZM219.335 191.193C219.531 190.999 219.533 190.682 219.339 190.486C219.145 190.289 218.829 190.287 218.632 190.481L219.335 191.193ZM224.309 184.587C224.122 184.791 224.135 185.107 224.339 185.294C224.542 185.48 224.859 185.467 225.045 185.263L224.309 184.587ZM230.457 179.099C230.635 178.888 230.608 178.572 230.397 178.394C230.185 178.217 229.87 178.244 229.692 178.455L230.457 179.099ZM234.844 172.096C234.674 172.313 234.713 172.627 234.931 172.797C235.148 172.967 235.462 172.929 235.632 172.711L234.844 172.096ZM240.594 166.136C240.757 165.913 240.708 165.6 240.485 165.438C240.262 165.275 239.949 165.323 239.786 165.546L240.594 166.136ZM244.529 158.85C244.373 159.078 244.43 159.389 244.658 159.545C244.885 159.702 245.197 159.644 245.353 159.417L244.529 158.85ZM249.913 152.6C250.064 152.368 249.998 152.058 249.767 151.908C249.535 151.757 249.226 151.822 249.075 152.054L249.913 152.6ZM253.469 145.133C253.324 145.368 253.396 145.676 253.631 145.821C253.866 145.967 254.174 145.894 254.319 145.66L253.469 145.133ZM258.578 138.622C258.719 138.384 258.64 138.078 258.402 137.937C258.165 137.796 257.858 137.875 257.717 138.113L258.578 138.622ZM261.822 131.021C261.686 131.262 261.77 131.567 262.011 131.703C262.251 131.839 262.556 131.755 262.692 131.514L261.822 131.021ZM266.682 124.329C266.814 124.087 266.724 123.783 266.482 123.651C266.239 123.519 265.936 123.609 265.804 123.851L266.682 124.329ZM269.667 116.617C269.539 116.862 269.633 117.164 269.878 117.292C270.122 117.42 270.424 117.326 270.553 117.081L269.667 116.617ZM274.308 109.786C274.433 109.539 274.334 109.238 274.088 109.114C273.842 108.989 273.541 109.088 273.416 109.334L274.308 109.786ZM277.073 101.979C276.951 102.227 277.054 102.526 277.302 102.647C277.55 102.769 277.85 102.666 277.971 102.418L277.073 101.979ZM281.532 95.0098C281.65 94.7602 281.544 94.4621 281.294 94.344C281.044 94.226 280.746 94.3326 280.628 94.5822L281.532 95.0098ZM284.083 87.1625C283.968 87.4136 284.078 87.7103 284.329 87.8254C284.58 87.9405 284.877 87.8302 284.992 87.5792L284.083 87.1625ZM288.371 80.0951C288.483 79.8428 288.369 79.5473 288.117 79.4351C287.865 79.3229 287.569 79.4365 287.457 79.6888L288.371 80.0951ZM290.758 72.1528C290.649 72.4063 290.765 72.7006 291.019 72.81C291.272 72.9194 291.567 72.8026 291.676 72.549L290.758 72.1528ZM294.895 64.9824C295.001 64.7277 294.881 64.4347 294.627 64.328C294.372 64.2212 294.079 64.3411 293.972 64.5958L294.895 64.9824ZM297.102 57.0217C296.998 57.2774 297.121 57.5692 297.377 57.6733C297.632 57.7775 297.924 57.6546 298.028 57.3989L297.102 57.0217ZM301.082 49.7953C301.183 49.5386 301.057 49.248 300.801 49.1464C300.544 49.0448 300.253 49.1705 300.152 49.4273L301.082 49.7953ZM303.127 41.8012C303.028 42.0589 303.157 42.3482 303.414 42.4473C303.672 42.5464 303.962 42.4178 304.061 42.1601L303.127 41.8012ZM306.973 34.4743C307.069 34.2156 306.938 33.9276 306.679 33.831C306.42 33.7345 306.132 33.8659 306.036 34.1246L306.973 34.4743ZM308.88 26.3841C308.786 26.6438 308.921 26.9304 309.18 27.0243C309.44 27.1182 309.727 26.9838 309.82 26.7241L308.88 26.3841ZM312.579 18.9639C312.67 18.7031 312.532 18.418 312.271 18.327C312.011 18.236 311.725 18.3736 311.634 18.6343L312.579 18.9639ZM314.294 10.8511C314.207 11.113 314.348 11.3962 314.61 11.4836C314.872 11.5709 315.156 11.4294 315.243 11.1674L314.294 10.8511ZM6.99991 369C7.33314 369.373 7.33315 369.373 7.33317 369.373C7.33318 369.373 7.3332 369.373 7.33321 369.373C7.33325 369.373 7.33331 369.373 7.33338 369.373C7.33351 369.372 7.33371 369.372 7.33397 369.372C7.33449 369.372 7.33526 369.371 7.33626 369.37C7.33828 369.368 7.34126 369.366 7.34521 369.362C7.35311 369.355 7.36486 369.344 7.3804 369.33C7.4115 369.302 7.45777 369.261 7.51876 369.206C7.64072 369.096 7.82153 368.932 8.05737 368.718C8.52906 368.289 9.22094 367.655 10.1027 366.838L9.4226 366.104C8.54337 366.92 7.85389 367.551 7.38445 367.978C7.14974 368.192 6.97004 368.354 6.84915 368.463C6.7887 368.518 6.74295 368.559 6.71238 368.586C6.6971 368.6 6.68561 368.61 6.67797 368.617C6.67415 368.621 6.6713 368.623 6.66941 368.625C6.66847 368.626 6.66777 368.626 6.66731 368.627C6.66709 368.627 6.66692 368.627 6.66681 368.627C6.66676 368.627 6.66672 368.627 6.6667 368.627C6.66669 368.627 6.66668 368.627 6.66668 368.627C6.66668 368.627 6.66668 368.627 6.99991 369ZM15.6562 361.587C17.2943 360.011 19.123 358.229 21.0951 356.271L20.3905 355.561C18.4225 357.515 16.5975 359.294 14.9629 360.866L15.6562 361.587ZM26.4554 350.865C28.1625 349.116 29.9324 347.275 31.7423 345.358L31.0152 344.672C29.2093 346.584 27.4433 348.421 25.7398 350.166L26.4554 350.865ZM36.92 339.777C38.6015 337.93 40.2984 336.033 41.9939 334.096L41.2413 333.437C39.5505 335.369 37.8581 337.262 36.1807 339.103L36.92 339.777ZM46.9522 328.302C48.5784 326.357 50.1881 324.383 51.7661 322.392L50.9823 321.771C49.4102 323.755 47.806 325.721 46.185 327.66L46.9522 328.302ZM56.4123 316.342C57.944 314.28 59.4268 312.209 60.8446 310.14L60.0196 309.574C58.6097 311.632 57.1344 313.693 55.6095 315.746L56.4123 316.342ZM65.0112 303.744C66.3845 301.515 67.6619 299.299 68.8225 297.111L67.939 296.643C66.7898 298.809 65.5233 301.006 64.1598 303.22L65.0112 303.744ZM72.112 290.218C73.1521 287.74 74.0021 285.315 74.6268 282.968L73.6605 282.711C73.0494 285.007 72.2155 287.387 71.1899 289.831L72.112 290.218ZM75.831 275.352C75.9231 272.627 75.5891 270.056 74.7506 267.692L73.8081 268.026C74.5978 270.252 74.9202 272.695 74.8315 275.318L75.831 275.352ZM70.5309 261.166C69.634 260.298 68.6167 259.49 67.4732 258.745L66.9272 259.583C68.0207 260.295 68.9876 261.064 69.8357 261.885L70.5309 261.166ZM67.4732 258.745C66.3658 258.023 65.2063 257.34 64.0021 256.697L63.5311 257.579C64.711 258.209 65.8454 258.877 66.9272 259.583L67.4732 258.745ZM56.638 253.456C54.152 252.568 51.5603 251.828 48.9084 251.249L48.6951 252.226C51.3064 252.797 53.857 253.525 56.3016 254.398L56.638 253.456ZM40.9672 250.02C38.2907 249.773 35.598 249.692 32.9321 249.79L32.9688 250.79C35.5901 250.693 38.2399 250.773 40.8752 251.016L40.9672 250.02ZM24.9331 250.655C22.2508 251.15 19.6438 251.853 17.1619 252.78L17.5118 253.717C19.9343 252.812 22.4844 252.123 25.1145 251.638L24.9331 250.655ZM9.93687 256.377C8.7998 257.112 7.71115 257.913 6.67828 258.781L7.32172 259.546C8.32143 258.706 9.37635 257.93 10.4798 257.217L9.93687 256.377ZM6.67828 258.781C5.5053 259.767 4.51753 260.777 3.70639 261.811L4.49297 262.428C5.2563 261.456 6.1944 260.494 7.32172 259.546L6.67828 258.781ZM0.808069 269.66C0.800026 272.324 1.67558 275.018 3.23387 277.694L4.09803 277.19C2.60223 274.622 1.8007 272.102 1.80806 269.663L0.808069 269.66ZM8.35205 284.238C10.1584 286.097 12.2391 287.943 14.5374 289.765L15.1585 288.981C12.8868 287.181 10.8396 285.363 9.0692 283.541L8.35205 284.238ZM21.2242 294.606C23.4478 296.091 25.792 297.55 28.2243 298.977L28.7303 298.115C26.3127 296.696 23.985 295.247 21.7793 293.775L21.2242 294.606ZM35.4307 302.982C37.8415 304.255 40.303 305.492 42.7886 306.688L43.2221 305.787C40.7469 304.596 38.2966 303.364 35.8975 302.098L35.4307 302.982ZM50.274 310.136C52.8158 311.257 55.3554 312.329 57.8652 313.345L58.2403 312.418C55.7399 311.406 53.2098 310.338 50.6776 309.221L50.274 310.136ZM65.5512 316.317C68.2294 317.304 70.8361 318.214 73.3337 319.037L73.6465 318.087C71.1605 317.268 68.5648 316.362 65.8971 315.379L65.5512 316.317ZM81.217 321.447C82.601 321.834 83.9262 322.183 85.1833 322.491L85.4214 321.52C84.1757 321.214 82.8609 320.868 81.4862 320.484L81.217 321.447ZM85.1833 322.491C86.4825 322.809 87.773 323.078 89.0544 323.296L89.2228 322.311C87.9651 322.096 86.6979 321.833 85.4214 321.52L85.1833 322.491ZM96.8392 324.033C99.495 324.079 102.106 323.911 104.671 323.542L104.529 322.552C102.017 322.914 99.4588 323.078 96.8566 323.033L96.8392 324.033ZM112.317 321.81C114.801 321.039 117.234 320.075 119.614 318.931L119.181 318.03C116.843 319.153 114.456 320.099 112.02 320.855L112.317 321.81ZM126.42 315.084C128.568 313.682 130.667 312.131 132.715 310.44L132.078 309.669C130.058 311.337 127.989 312.866 125.874 314.246L126.42 315.084ZM138.498 305.164C140.306 303.352 142.068 301.429 143.783 299.401L143.02 298.755C141.321 300.763 139.577 302.666 137.79 304.458L138.498 305.164ZM148.6 293.272C150.109 291.207 151.577 289.06 153.002 286.836L152.16 286.297C150.746 288.504 149.29 290.634 147.792 292.681L148.6 293.272ZM157.025 280.156C158.289 277.924 159.514 275.63 160.698 273.278L159.805 272.829C158.628 275.166 157.411 277.446 156.155 279.663L157.025 280.156ZM164.048 266.239C165.103 263.894 166.119 261.501 167.098 259.067L166.17 258.694C165.196 261.116 164.185 263.497 163.136 265.829L164.048 266.239ZM169.865 251.782C170.736 249.355 171.57 246.894 172.366 244.402L171.414 244.097C170.621 246.579 169.791 249.029 168.924 251.444L169.865 251.782ZM174.613 236.941C175.317 234.455 175.984 231.944 176.615 229.412L175.644 229.17C175.016 231.692 174.352 234.193 173.651 236.669L174.613 236.941ZM178.379 221.824C178.926 219.293 179.436 216.746 179.91 214.186L178.926 214.004C178.455 216.554 177.946 219.092 177.401 221.612L178.379 221.824ZM181.211 206.506C181.606 203.943 181.963 201.371 182.283 198.793L181.29 198.67C180.972 201.238 180.616 203.801 180.222 206.354L181.211 206.506ZM183.125 191.051C183.368 188.464 183.571 185.874 183.735 183.287L182.737 183.223C182.574 185.801 182.371 188.38 182.129 190.958L183.125 191.051ZM184.108 175.506C184.193 172.902 184.236 170.305 184.238 167.716L183.238 167.716C183.236 170.293 183.193 172.88 183.109 175.473L184.108 175.506ZM184.115 159.926C184.03 157.317 183.901 154.721 183.728 152.144L182.73 152.211C182.903 154.777 183.031 157.361 183.115 159.958L184.115 159.926ZM183.064 144.379C182.929 143.088 182.782 141.802 182.624 140.523L181.632 140.645C181.789 141.919 181.935 143.198 182.069 144.483L183.064 144.379ZM182.624 140.523C182.465 139.239 182.295 137.957 182.113 136.677L181.123 136.817C181.304 138.092 181.474 139.368 181.632 140.645L182.624 140.523ZM180.883 129.014C180.427 126.466 179.926 123.927 179.381 121.401L178.403 121.611C178.946 124.126 179.444 126.654 179.898 129.19L180.883 129.014ZM177.614 113.845C176.979 111.331 176.302 108.834 175.584 106.355L174.624 106.633C175.339 109.101 176.013 111.587 176.644 114.089L177.614 113.845ZM173.296 98.9398C172.487 96.4733 171.638 94.0288 170.749 91.6093L169.811 91.954C170.695 94.3625 171.54 96.7959 172.345 99.2513L173.296 98.9398ZM167.945 84.3732C166.962 81.9662 165.94 79.5882 164.881 77.2425L163.97 77.6541C165.024 79.9886 166.041 82.3553 167.019 84.7512L167.945 84.3732ZM161.555 70.2297C160.394 67.8978 159.196 65.6031 157.962 63.349L157.085 63.8293C158.312 66.0717 159.505 68.3549 160.66 70.6753L161.555 70.2297ZM154.095 56.617C152.749 54.381 151.366 52.1919 149.948 50.0535L149.115 50.6061C150.524 52.7321 151.899 54.909 153.239 57.1329L154.095 56.617ZM145.511 43.682C143.967 41.5714 142.387 39.5196 140.773 37.5311L139.997 38.1611C141.599 40.1364 143.169 42.1749 144.704 44.2726L145.511 43.682ZM135.723 31.6355C133.964 29.6923 132.17 27.8231 130.344 26.033L129.644 26.747C131.455 28.5228 133.236 30.3776 134.982 32.3067L135.723 31.6355ZM124.613 20.7663C122.617 19.0527 120.589 17.4329 118.53 15.9126L117.936 16.717C119.974 18.2221 121.984 19.8267 123.961 21.525L124.613 20.7663ZM112.092 11.5489C109.858 10.1678 107.593 8.90409 105.301 7.76469L104.856 8.66016C107.119 9.78525 109.357 11.0339 111.566 12.3995L112.092 11.5489ZM98.1486 4.65249C95.6931 3.73481 93.2112 2.96127 90.7068 2.33989L90.466 3.31047C92.932 3.92231 95.3774 4.68438 97.7985 5.58921L98.1486 4.65249ZM83.0405 0.929462C80.4625 0.620344 77.8659 0.47558 75.2547 0.503359L75.2653 1.5033C77.8325 1.47599 80.3857 1.6183 82.9214 1.92235L83.0405 0.929462ZM67.4749 1.09902C64.9375 1.46166 62.3909 1.99157 59.8387 2.6958L60.1046 3.65978C62.6163 2.96673 65.1214 2.44554 67.6164 2.08896L67.4749 1.09902ZM52.4772 5.21174C51.2796 5.70089 50.0815 6.22966 48.8835 6.79875L49.3125 7.70203C50.494 7.14079 51.6751 6.61954 52.8553 6.13751L52.4772 5.21174ZM48.8835 6.79875C47.6154 7.4011 46.4024 8.04259 45.2434 8.72184L45.749 9.58459C46.8824 8.92038 48.0698 8.29235 49.3125 7.70203L48.8835 6.79875ZM38.6969 13.4435C36.6316 15.2712 34.8192 17.2662 33.2479 19.4128L34.0548 20.0035C35.5838 17.9148 37.3478 15.9727 39.3596 14.1924L38.6969 13.4435ZM29.1877 26.4196C28.1005 28.8451 27.241 31.4024 26.596 34.0751L27.5681 34.3097C28.1997 31.6926 29.04 29.1941 30.1002 26.8286L29.1877 26.4196ZM25.3217 42.0573C25.0983 44.6711 25.0413 47.3678 25.141 50.1356L26.1404 50.0996C26.042 47.3687 26.0984 44.7126 26.3181 42.1424L25.3217 42.0573ZM25.8371 58.1745C26.1853 60.7722 26.6527 63.419 27.2325 66.1067L28.21 65.8958C27.6354 63.2321 27.1727 60.6113 26.8282 58.0417L25.8371 58.1745ZM29.1932 73.9047C29.915 76.4312 30.7259 78.9857 31.6205 81.5617L32.5651 81.2336C31.6763 78.6742 30.8712 76.1375 30.1547 73.6299L29.1932 73.9047ZM34.4421 89.0794C35.4282 91.5283 36.4837 93.9909 37.6043 96.462L38.515 96.049C37.4 93.5904 36.3502 91.1409 35.3697 88.7059L34.4421 89.0794ZM41.0662 103.713C42.2547 106.086 43.499 108.461 44.7955 110.835L45.6732 110.356C44.3822 107.992 43.1433 105.627 41.9602 103.265L41.0662 103.713ZM48.7666 117.828C50.117 120.119 51.513 122.404 52.9512 124.68L53.7965 124.145C52.3637 121.878 50.9731 119.602 49.628 117.321L48.7666 117.828ZM57.3375 131.397C58.8287 133.609 60.3575 135.808 61.9209 137.99L62.7338 137.408C61.1759 135.233 59.6525 133.042 58.1667 130.838L57.3375 131.397ZM66.6899 144.453C68.3083 146.583 69.9576 148.693 71.6348 150.778L72.414 150.151C70.7426 148.073 69.0989 145.971 67.4862 143.848L66.6899 144.453ZM76.7531 156.962C78.4935 159.006 80.2591 161.022 82.0469 163.005L82.7896 162.335C81.0082 160.36 79.2489 158.351 77.5145 156.314L76.7531 156.962ZM87.5116 168.893C89.371 170.838 91.25 172.745 93.1454 174.611L93.8469 173.898C91.9589 172.04 90.087 170.139 88.2345 168.202L87.5116 168.893ZM98.9486 180.144C100.935 181.977 102.935 183.761 104.945 185.491L105.598 184.734C103.596 183.011 101.605 181.234 99.6268 179.409L98.9486 180.144ZM111.139 190.626C113.263 192.319 115.395 193.949 117.53 195.51L118.12 194.703C115.997 193.15 113.876 191.529 111.763 189.844L111.139 190.626ZM124.129 200.106C126.405 201.611 128.681 203.032 130.95 204.364L131.456 203.501C129.203 202.179 126.943 200.768 124.68 199.271L124.129 200.106ZM138.011 208.218C140.465 209.456 142.906 210.578 145.328 211.578L145.709 210.653C143.313 209.664 140.894 208.552 138.462 207.325L138.011 208.218ZM152.908 214.315C154.196 214.711 155.476 215.069 156.748 215.386L156.99 214.416C155.736 214.103 154.473 213.751 153.202 213.359L152.908 214.315ZM156.748 215.386C158.119 215.728 159.486 216.008 160.85 216.227L161.009 215.24C159.673 215.025 158.333 214.751 156.99 214.416L156.748 215.386ZM169.088 216.832C171.848 216.796 174.59 216.522 177.311 216.027L177.132 215.043C174.464 215.528 171.777 215.796 169.075 215.832L169.088 216.832ZM185.301 213.932C187.863 213.057 190.404 211.995 192.922 210.759L192.482 209.861C189.999 211.079 187.497 212.125 184.978 212.986L185.301 213.932ZM200.12 206.729C202.401 205.296 204.661 203.727 206.9 202.033L206.296 201.236C204.079 202.913 201.843 204.466 199.588 205.883L200.12 206.729ZM213.291 196.818C215.326 195.038 217.34 193.16 219.335 191.193L218.632 190.481C216.651 192.435 214.651 194.299 212.633 196.066L213.291 196.818ZM225.045 185.263C226.868 183.276 228.672 181.219 230.457 179.099L229.692 178.455C227.916 180.565 226.121 182.611 224.309 184.587L225.045 185.263ZM235.632 172.711C237.305 170.569 238.959 168.375 240.594 166.136L239.786 165.546C238.157 167.777 236.51 169.962 234.844 172.096L235.632 172.711ZM245.353 159.417C246.892 157.179 248.412 154.905 249.913 152.6L249.075 152.054C247.578 154.352 246.063 156.619 244.529 158.85L245.353 159.417ZM254.319 145.66C255.758 143.337 257.178 140.989 258.578 138.622L257.717 138.113C256.321 140.474 254.904 142.816 253.469 145.133L254.319 145.66ZM262.692 131.514C264.042 129.131 265.372 126.735 266.682 124.329L265.804 123.851C264.497 126.252 263.169 128.644 261.822 131.021L262.692 131.514ZM270.553 117.081C271.826 114.651 273.079 112.218 274.308 109.786L273.416 109.334C272.188 111.762 270.938 114.192 269.667 116.617L270.553 117.081ZM277.971 102.418C279.182 99.9392 280.37 97.4681 281.532 95.0098L280.628 94.5822C279.467 97.0368 278.282 99.5041 277.073 101.979L277.971 102.418ZM284.992 87.5792C286.146 85.0624 287.272 82.5656 288.371 80.0951L287.457 79.6888C286.36 82.156 285.235 84.6493 284.083 87.1625L284.992 87.5792ZM291.676 72.549C292.782 69.9873 293.855 67.4626 294.895 64.9824L293.972 64.5958C292.934 67.0728 291.862 69.5944 290.758 72.1528L291.676 72.549ZM298.028 57.3989C299.088 54.7985 300.106 52.2607 301.082 49.7953L300.152 49.4273C299.177 51.8897 298.16 54.4244 297.102 57.0217L298.028 57.3989ZM304.061 42.1601C305.091 39.4803 306.062 36.9132 306.973 34.4743L306.036 34.1246C305.127 36.5606 304.157 39.1246 303.127 41.8012L304.061 42.1601ZM309.82 26.7241C310.856 23.8612 311.777 21.2618 312.579 18.9639L311.634 18.6343C310.834 20.929 309.914 23.5248 308.88 26.3841L309.82 26.7241ZM315.243 11.1674C315.649 9.94826 315.958 9.00729 316.164 8.37085C316.268 8.05262 316.346 7.81052 316.398 7.64784C316.424 7.5665 316.444 7.50502 316.457 7.4638C316.463 7.44319 316.468 7.42764 316.471 7.41722C316.473 7.412 316.474 7.40807 316.475 7.40542C316.476 7.4041 316.476 7.40309 316.476 7.40241C316.476 7.40207 316.476 7.40181 316.476 7.40164C316.476 7.40155 316.476 7.40148 316.477 7.40143C316.477 7.4014 316.477 7.40138 316.477 7.40137C316.477 7.40135 316.477 7.40134 316 7.25039C315.523 7.09944 315.523 7.09944 315.523 7.09944C315.523 7.09945 315.523 7.09946 315.523 7.09947C315.523 7.0995 315.523 7.09956 315.523 7.09963C315.523 7.09977 315.523 7.1 315.523 7.1003C315.523 7.10091 315.522 7.10184 315.522 7.1031C315.521 7.10561 315.52 7.1094 315.518 7.11447C315.515 7.12462 315.51 7.13988 315.504 7.1602C315.491 7.20085 315.471 7.26177 315.446 7.34253C315.394 7.50405 315.316 7.74496 315.213 8.06199C315.007 8.69603 314.7 9.63449 314.294 10.8511L315.243 11.1674Z" fill="#04C1C4"/>
</svg>
