<svg width="36" height="36" viewBox="0 0 36 36" fill="none" xmlns="http://www.w3.org/2000/svg">
<circle cx="18" cy="18" r="18" fill="#87C3FF"/>
<path d="M20.7493 10.667C19.7769 10.667 18.8443 11.0533 18.1566 11.7409C17.469 12.4286 17.0827 13.3612 17.0827 14.3337C17.0827 15.3061 17.469 16.2388 18.1566 16.9264C18.8443 17.614 19.7769 18.0003 20.7493 18.0003C21.7218 18.0003 22.6544 17.614 23.3421 16.9264C24.0297 16.2388 24.416 15.3061 24.416 14.3337C24.416 13.3612 24.0297 12.4286 23.3421 11.7409C22.6544 11.0533 21.7218 10.667 20.7493 10.667ZM20.7493 12.4087C21.0021 12.4087 21.2525 12.4585 21.486 12.5552C21.7196 12.6519 21.9318 12.7937 22.1105 12.9725C22.2893 13.1512 22.4311 13.3634 22.5278 13.597C22.6246 13.8305 22.6744 14.0809 22.6744 14.3337C22.6744 14.5865 22.6246 14.8368 22.5278 15.0703C22.4311 15.3039 22.2893 15.5161 22.1105 15.6948C21.9318 15.8736 21.7196 16.0154 21.486 16.1121C21.2525 16.2089 21.0021 16.2587 20.7493 16.2587C20.4966 16.2587 20.2462 16.2089 20.0127 16.1121C19.7791 16.0154 19.5669 15.8736 19.3882 15.6948C19.2094 15.5161 19.0676 15.3039 18.9709 15.0703C18.8741 14.8368 18.8243 14.5865 18.8243 14.3337C18.8243 13.8231 19.0272 13.3335 19.3882 12.9725C19.7492 12.6115 20.2388 12.4087 20.7493 12.4087ZM10.666 13.417V16.167H7.91602V18.0003H10.666V20.7503H12.4993V18.0003H15.2493V16.167H12.4993V13.417H10.666ZM20.7493 18.917C18.3018 18.917 13.416 20.1362 13.416 22.5837V25.3337H28.0827V22.5837C28.0827 20.1362 23.1969 18.917 20.7493 18.917ZM20.7493 20.6587C23.4719 20.6587 26.341 21.997 26.341 22.5837V23.592H15.1577V22.5837C15.1577 21.997 17.9993 20.6587 20.7493 20.6587Z" fill="white"/>
</svg>
