<svg width="30" height="30" viewBox="0 0 30 30" fill="none" xmlns="http://www.w3.org/2000/svg">
<path d="M19.2992 12.0998C19.2992 13.3728 18.7935 14.5937 17.8933 15.4939C16.9932 16.3941 15.7723 16.8998 14.4992 16.8998C13.2262 16.8998 12.0053 16.3941 11.1051 15.4939C10.2049 14.5937 9.69922 13.3728 9.69922 12.0998C9.69922 10.8268 10.2049 9.60587 11.1051 8.70569C12.0053 7.80552 13.2262 7.2998 14.4992 7.2998C15.7723 7.2998 16.9932 7.80552 17.8933 8.70569C18.7935 9.60587 19.2992 10.8268 19.2992 12.0998Z" fill="#07A24D"/>
<path fill-rule="evenodd" clip-rule="evenodd" d="M14.0104 26.4904C7.6102 26.2336 2.5 20.9632 2.5 14.5C2.5 7.8724 7.8724 2.5 14.5 2.5C21.1276 2.5 26.5 7.8724 26.5 14.5C26.5 21.1276 21.1276 26.5 14.5 26.5C14.4452 26.5004 14.3904 26.5004 14.3356 26.5C14.227 26.5 14.1184 26.4964 14.0104 26.4904ZM6.7996 22.072C6.70988 21.8143 6.67934 21.5398 6.71025 21.2687C6.74116 20.9976 6.83272 20.737 6.97815 20.5062C7.12357 20.2753 7.31912 20.0802 7.55027 19.9353C7.78143 19.7903 8.04226 19.6993 8.3134 19.669C12.991 19.1512 16.0378 19.198 20.6926 19.6798C20.9641 19.7081 21.2256 19.7979 21.4571 19.9425C21.6886 20.0871 21.8841 20.2827 22.0286 20.5142C22.1732 20.7458 22.263 21.0073 22.2912 21.2788C22.3194 21.5503 22.2853 21.8247 22.1914 22.081C24.1864 20.0625 25.3036 17.338 25.3 14.5C25.3 8.5354 20.4646 3.7 14.5 3.7C8.5354 3.7 3.7 8.5354 3.7 14.5C3.7 17.4496 4.8826 20.1232 6.7996 22.072Z" fill="#07A24D"/>
</svg>
