<svg width="27" height="31" viewBox="0 0 27 31" fill="none" xmlns="http://www.w3.org/2000/svg">
<g clip-path="url(#clip0_1869_3907)">
<path d="M22.9047 2.41319C21.4351 0.782921 18.7785 0.0839844 15.38 0.0839844H5.51655C5.1803 0.0839965 4.85508 0.200752 4.59937 0.413259C4.34365 0.625766 4.17422 0.920085 4.12152 1.2433L0.0145639 26.5942C-0.067069 27.0941 0.330654 27.5468 0.851248 27.5468H6.94059L8.46989 18.1061L8.42243 18.4017C8.53138 17.7344 9.11778 17.2422 9.81219 17.2422H12.7058C18.3904 17.2422 22.8415 14.995 24.1417 8.49432C24.1803 8.30206 24.2137 8.11493 24.2426 7.93212C24.0785 7.84753 24.0785 7.84753 24.2426 7.93212C24.6298 5.52941 24.24 3.8939 22.9047 2.41319Z" fill="#27346A"/>
<path d="M10.7999 7.06658C10.9664 6.98943 11.1485 6.94945 11.3328 6.94956H19.0656C19.9813 6.94956 20.8354 7.00756 21.6158 7.12981C21.8342 7.1637 22.0515 7.20417 22.2673 7.25114C22.5732 7.31684 22.8756 7.39724 23.1733 7.49206C23.557 7.61678 23.9143 7.76203 24.2427 7.93212C24.6298 5.52849 24.24 3.8939 22.9047 2.41319C21.4342 0.782921 18.7785 0.0839844 15.38 0.0839844H5.51571C4.8212 0.0839844 4.23036 0.576084 4.12152 1.2433L0.0145644 26.5933C-0.0670684 27.094 0.330654 27.5461 0.850404 27.5461H6.94059L10.1134 7.96373C10.1446 7.77125 10.2234 7.58903 10.343 7.43275C10.4626 7.27647 10.6194 7.15081 10.7999 7.06658Z" fill="#27346A"/>
<path d="M24.1417 8.49385C22.8415 14.9936 18.3905 17.2417 12.7058 17.2417H9.81136C9.11695 17.2417 8.53044 17.7339 8.42254 18.4012L6.51999 30.1397C6.44891 30.5771 6.79653 30.9736 7.25131 30.9736H12.3845C12.6785 30.9735 12.9629 30.8713 13.1864 30.6854C13.41 30.4995 13.5581 30.2421 13.604 29.9594L13.654 29.7048L14.6215 23.7372L14.6838 23.4074C14.7298 23.1248 14.8778 22.8673 15.1013 22.6814C15.3249 22.4955 15.6092 22.3933 15.9032 22.3932H16.6715C21.644 22.3932 25.5376 20.4271 26.6754 14.7408C27.1503 12.3644 26.9046 10.3804 25.6482 8.98687C25.2672 8.56478 24.7939 8.21618 24.2426 7.93164C24.2128 8.11538 24.1804 8.30159 24.1417 8.49385Z" fill="#2790C3"/>
<path d="M22.8815 7.40385C22.6787 7.34624 22.4741 7.29523 22.2678 7.25091C22.0519 7.2047 21.8347 7.16451 21.6164 7.1304C20.835 7.00732 19.9816 6.94922 19.0651 6.94922H11.3333C11.1487 6.94881 10.9665 6.98914 10.8003 7.06717C10.6196 7.15114 10.4626 7.27673 10.343 7.43305C10.2233 7.58938 10.1446 7.77173 10.1137 7.96432L8.47031 18.1058L8.42285 18.4015C8.53096 17.7341 9.11736 17.2419 9.81187 17.2419H12.7064C18.3909 17.2419 22.8419 14.9947 24.1421 8.49409C24.1808 8.30183 24.2133 8.11552 24.2432 7.93188C23.9139 7.76272 23.5575 7.61654 23.1737 7.49265C23.0769 7.4614 22.9795 7.4318 22.8816 7.40385" fill="#1F264F"/>
</g>
<defs>
<clipPath id="clip0_1869_3907">
<rect width="27" height="31" fill="white"/>
</clipPath>
</defs>
</svg>
