<svg width="64" height="63" viewBox="0 0 64 63" fill="none" xmlns="http://www.w3.org/2000/svg">
<circle cx="32" cy="31.5" r="31.5" fill="#04C1C4" fill-opacity="0.09"/>
<path d="M44.0098 15.625H33.1562L40.0625 24.8338L44.0098 15.625ZM20.9902 15.625L24.9375 24.8338L31.8438 15.625H20.9902ZM32.5 19.1253L27.25 26.125H37.75L32.5 19.1253ZM46.1951 17.1885L42.3651 26.125H51.5312L46.1951 17.1885ZM18.8049 17.1885L13.3867 26.125H22.6349L18.8049 17.1885ZM23.5323 28.75H13.4688L31.7453 52.375H31.7888L23.5323 28.75ZM41.4677 28.75L33.2112 52.375H33.2547L51.5312 28.75H41.4677ZM38.5203 28.75H26.4797L32.5 45.8125L38.5203 28.75Z" fill="#03A6A9"/>
</svg>
