<svg width="93" height="78" viewBox="0 0 93 78" fill="none" xmlns="http://www.w3.org/2000/svg">
<g id="pricing-plans/pana">
<g id="standard-option">
<path id="Vector" d="M81.542 7.18687C81.6656 6.95912 81.7423 6.70899 81.7679 6.45116C81.7935 6.19332 81.7673 5.93298 81.6909 5.68541C81.6145 5.43783 81.4894 5.208 81.323 5.00941C81.1566 4.81081 80.9522 4.64745 80.7218 4.52891C80.7955 3.89236 80.6213 3.25187 80.2354 2.74034C79.8494 2.2288 79.2814 1.88549 78.649 1.78163C78.0427 1.70878 77.4293 1.86859 76.8207 1.82158C76.212 1.77458 75.6856 1.53957 75.1074 1.43382C74.5293 1.32806 73.8642 1.38917 73.4624 1.82158C73.0229 2.29161 73.0887 3.08829 73.4389 3.64057C73.789 4.19284 74.3531 4.55946 74.9006 4.91197C74.7364 4.91168 74.5776 4.97112 74.454 5.07921C74.3303 5.18731 74.2502 5.33669 74.2285 5.4995C74.1943 5.83342 74.2847 6.16822 74.4823 6.43954C74.7809 6.89719 75.2 7.26355 75.6934 7.49825C76.1869 7.73295 76.7355 7.82688 77.2789 7.7697L78.8136 7.72505C79.0272 7.87158 79.2678 7.97399 79.5215 8.02629C79.7752 8.07858 80.0368 8.07969 80.2909 8.02957C80.5451 7.97944 80.7866 7.87909 81.0015 7.73438C81.2163 7.58968 81.4001 7.40353 81.542 7.18687Z" fill="#263238"/>
<path id="Vector_2" d="M76.6943 8.70264C76.5366 8.71666 76.3793 8.67186 76.2526 8.57684C76.1259 8.48183 76.0388 8.34332 76.0081 8.18796C75.984 8.03095 76.0034 7.87033 76.0643 7.72362C76.1253 7.57691 76.2253 7.44975 76.3536 7.35603C76.6157 7.17618 76.9323 7.0931 77.249 7.12102C77.5647 7.14776 77.875 7.21978 78.1702 7.33488C78.6346 7.48765 79.0789 7.69597 79.4933 7.9553C79.643 8.04286 79.7714 8.16244 79.8693 8.30547C79.9179 8.37761 79.9462 8.46151 79.9512 8.54836C79.9561 8.63521 79.9376 8.72178 79.8975 8.79899C79.7706 9.0058 79.4863 9.034 79.2442 9.034C78.3357 9.03815 77.4287 8.95949 76.5345 8.79899" fill="#03A6A9"/>
<path id="Vector_3" d="M76.1886 8.18569C76.0076 6.46542 73.58 4.9214 72.5318 5.19636C72.265 4.70008 71.8173 4.32557 71.2817 4.15054C70.7461 3.97551 70.1637 4.01339 69.6553 4.25632L66.7976 2.98961C66.3088 2.7734 65.7964 2.55014 65.2653 2.59715C64.7342 2.64415 64.1937 3.06717 64.2125 3.59594C63.1808 3.18467 61.8906 4.22577 62.0786 5.32327C61.9247 5.35828 61.7797 5.42441 61.6523 5.51759C61.525 5.61077 61.4181 5.72903 61.3382 5.86509C61.2582 6.00114 61.207 6.15211 61.1876 6.3087C61.1683 6.4653 61.1811 6.6242 61.2255 6.77563C59.9441 7.09288 58.7264 7.62701 57.6251 8.3549C57.1551 8.65806 56.7015 9.03173 56.5511 9.5605C56.4007 10.0893 56.7368 10.7802 57.2867 10.7849C57.0403 10.8671 56.8229 11.0185 56.6603 11.2211C56.4978 11.4236 56.397 11.6687 56.3702 11.9271C55.9448 11.6309 55.3479 12.1832 55.4137 12.6979C55.4795 13.2126 55.919 13.5839 56.342 13.8729C56.765 14.162 57.2327 14.4769 57.4019 14.9657C57.3608 15.0146 57.3103 15.0546 57.2533 15.0832C57.1964 15.1119 57.1342 15.1287 57.0705 15.1326C55.9284 15.189 54.9907 16.0421 54.9766 17.1842C54.9766 17.29 54.9766 17.3887 54.9766 17.4756C54.9766 17.9974 55.3338 18.7494 55.5641 19.2147C56.1446 20.3898 56.7744 20.7164 57.7144 21.64C56.9295 22.1101 57.5358 24.8644 60.5745 24.8221C63.7048 28.7326 66.2265 31.1955 70.2569 34.1684C70.8327 34.5938 71.5824 35.0239 72.2169 34.6949C72.5929 35.1649 73.2557 35.3153 73.8502 35.2307C74.4385 35.1096 75.0019 34.8895 75.5165 34.5797C76.1206 34.8001 76.7782 34.8281 77.3989 34.6598C78.0195 34.4915 78.5729 34.1351 78.9829 33.6397C79.5162 33.6211 80.0398 33.4918 80.5205 33.26C81.0011 33.0282 81.4283 32.6989 81.7748 32.293C82.9616 32.709 84.4186 31.8418 84.6208 30.601C85.2864 29.2558 85.7248 27.8098 85.918 26.3214C86.6842 26.6622 87.5866 25.9548 87.7699 25.1346C87.9532 24.3144 87.643 23.4896 87.3375 22.6976C87.737 23.1911 88.623 22.8856 88.8698 22.3028C89.1165 21.7199 88.9214 21.0478 88.6747 20.4626C88.316 19.6046 87.8544 18.7933 87.2999 18.0467C87.7018 17.0056 87.3163 15.1984 86.7852 14.2161C84.6419 10.2514 82.6279 8.16924 76.1933 8.16454" fill="#263238"/>
<path id="Vector_4" d="M69.2618 11.1283C69.4808 10.7768 69.8244 10.5207 70.2239 10.4114C70.6233 10.302 71.0494 10.3474 71.4169 10.5384L79.9642 13.4996C82.4741 14.7921 82.1381 18.705 80.7397 21.1586C79.1863 23.8847 77.184 27.1513 75.593 28.8998C72.3922 32.4249 68.5709 30.559 68.5709 30.559L66.6908 33.3932L64.517 36.7092C63.5252 35.7879 57.5137 29.3205 57.5137 29.3205L69.2618 11.1283Z" fill="#FFBF9D"/>
<path id="Vector_5" d="M72.8875 24.2812C72.9039 24.2483 73.2799 24.4105 73.8721 24.6996C74.0202 24.7771 74.1683 24.8359 74.2529 24.756C74.3584 24.6209 74.4207 24.457 74.4315 24.2859C74.5208 23.8661 74.6148 23.425 74.7135 22.9628C75.1295 21.0828 75.5266 19.5857 75.6018 19.6022C75.677 19.6186 75.4021 21.1533 74.9861 23.0263C74.8803 23.4963 74.7793 23.924 74.6806 24.3447C74.6583 24.5687 74.5576 24.7776 74.3962 24.9346C74.3442 24.97 74.2847 24.993 74.2224 25.002C74.1601 25.011 74.0966 25.0056 74.0367 24.9863C73.9466 24.9572 73.8605 24.9169 73.7805 24.8664C73.2118 24.5445 72.8687 24.3094 72.8875 24.2812Z" fill="#263238"/>
<path id="Vector_6" d="M68.5708 30.556C68.5708 30.556 66.3006 29.381 64.7143 26.0908C64.7143 26.0908 63.4288 29.4303 67.6707 31.912L68.5708 30.556Z" fill="#FF9A6C"/>
<path id="Vector_7" d="M74.888 16.8125C74.7376 16.9253 74.2417 16.4999 73.5555 16.1592C72.8693 15.8184 72.2418 15.6539 72.2441 15.4682C72.2441 15.3789 72.4275 15.299 72.7283 15.292C73.1196 15.2992 73.5043 15.3951 73.8532 15.5726C74.2021 15.7501 74.5061 16.0045 74.7423 16.3166C74.9021 16.5657 74.9444 16.7585 74.888 16.8125Z" fill="#263238"/>
<path id="Vector_8" d="M79.9853 20.3753C79.8091 20.4364 79.5153 20.0627 79.0735 19.7619C78.6317 19.4611 78.1922 19.2919 78.1875 19.1156C78.1875 19.0287 78.3309 18.9441 78.5753 18.937C78.8903 18.9386 79.1968 19.0389 79.4519 19.2237C79.713 19.4017 79.9125 19.6562 80.0229 19.9523C80.0981 20.1826 80.0582 20.3424 79.9853 20.3753Z" fill="#263238"/>
<path id="Vector_9" d="M81.1295 24.22C81.549 23.6054 81.744 22.8651 81.6818 22.1237C81.6301 21.7242 81.4773 21.3387 81.4679 20.9345C81.4468 20.0626 82.0696 19.3247 82.3821 18.5116C82.5788 17.9831 82.6467 17.4153 82.5801 16.8554C82.5135 16.2955 82.3143 15.7595 81.999 15.2919C81.4679 14.5211 80.6336 13.9712 80.2224 13.1322C79.9169 12.5118 79.8675 11.7832 79.5173 11.1839C78.8523 10.0089 77.3341 9.68928 75.9922 9.57178C75.2684 10.1828 75.2872 11.1675 75.2872 12.1146C75.2931 12.5881 75.4011 13.0547 75.6039 13.4826C75.8067 13.9105 76.0995 14.2896 76.4622 14.5939C77.0309 15.064 77.8206 15.4259 77.9334 16.1521C78.0509 16.9158 77.3129 17.5786 77.3035 18.3494C77.2918 19.454 78.6689 20.025 79.1155 21.0356C79.4586 21.8135 79.1954 22.7089 79.045 23.5478C78.8946 24.3868 78.9463 25.4138 79.6607 25.8791C80.2119 25.3838 80.7047 24.8272 81.1295 24.22Z" fill="#263238"/>
<path id="Vector_10" d="M76.5066 11.9994C74.7824 10.7151 72.8254 9.77732 70.7442 9.23804C70.1261 9.07823 69.4563 8.95602 68.8641 9.19808C68.3447 9.40959 67.9687 9.86551 67.6444 10.3261C66.6338 11.762 65.9476 13.9218 65.5293 15.6327L66.5398 17.9828C68.145 18.6478 69.2237 15.8277 70.0157 14.5939C70.6498 14.7203 71.3067 14.6662 71.9116 14.4377C72.5165 14.2092 73.0452 13.8155 73.4374 13.3014C74.0141 13.33 74.5897 13.2278 75.1213 13.0023C75.6528 12.7768 76.1264 12.4339 76.5066 11.9994Z" fill="#263238"/>
<path id="Vector_11" d="M66.8988 17.4542C67.4346 16.5988 66.5462 15.7175 65.5428 15.6329C64.9928 15.5859 64.3677 15.8327 63.7966 16.7351C62.2644 19.1369 64.9928 20.1827 65.0422 20.1146C65.0915 20.0464 66.2713 18.453 66.8988 17.4542Z" fill="#FFBF9D"/>
<path id="Vector_12" d="M64.8861 18.7374C64.8861 18.7209 64.825 18.7374 64.7334 18.7374C64.6066 18.7169 64.4928 18.6478 64.4161 18.5447C64.2211 18.2885 64.2657 17.7504 64.5289 17.3085C64.6547 17.0988 64.8257 16.9198 65.0295 16.7845C65.0999 16.7239 65.1839 16.6814 65.2744 16.6605C65.3649 16.6396 65.4591 16.641 65.5489 16.6646C65.6053 16.6823 65.6536 16.7194 65.6854 16.7693C65.7172 16.8191 65.7305 16.8786 65.7228 16.9372C65.7228 17.0242 65.6664 17.0618 65.6781 17.0759C65.6899 17.09 65.7533 17.0759 65.798 16.956C65.8218 16.8875 65.8218 16.813 65.798 16.7445C65.7634 16.6524 65.6943 16.5774 65.6053 16.5354C65.494 16.4928 65.3739 16.4791 65.2559 16.4955C65.138 16.512 65.0261 16.558 64.9308 16.6294C64.6948 16.7717 64.4977 16.9703 64.3574 17.2075C64.0636 17.701 64.0213 18.312 64.3057 18.634C64.3582 18.6938 64.4235 18.7411 64.4967 18.7724C64.5698 18.8037 64.6491 18.8183 64.7287 18.815C64.8438 18.7915 64.8908 18.7468 64.8861 18.7374Z" fill="#FF9A6C"/>
<path id="Vector_13" d="M63.9264 19.5223C63.9264 19.5223 63.9264 19.5223 63.8982 19.5482C63.8701 19.5737 63.8384 19.5951 63.8042 19.6116C63.6672 19.6792 63.5106 19.6959 63.3624 19.6586C63.126 19.608 62.9027 19.5088 62.7067 19.3672C62.5803 19.2805 62.4623 19.1821 62.3542 19.0734C62.2271 18.9533 62.12 18.8137 62.0369 18.6598H62.0745C61.9022 18.833 61.6879 18.9584 61.4525 19.0237C61.2171 19.0891 60.9688 19.0922 60.7319 19.0327C60.4949 18.9733 60.2775 18.8533 60.1009 18.6845C59.9243 18.5157 59.7946 18.3039 59.7244 18.0699L59.7691 18.0911C59.6231 18.1445 59.4619 18.1386 59.3202 18.0746C59.177 18.0101 59.0555 17.9056 58.9701 17.7738C58.878 17.6351 58.8342 17.4699 58.8455 17.3038C58.8569 17.1362 58.9112 16.9744 59.003 16.8338C59.1939 16.5485 59.4793 16.3396 59.809 16.2439C60.1471 16.1514 60.4951 16.1001 60.8454 16.0911L60.8125 16.1476C60.7601 16.018 60.7355 15.8788 60.7404 15.7392C60.7453 15.5995 60.7794 15.4624 60.8407 15.3368C60.9602 15.0752 61.1539 14.8546 61.3977 14.7022C61.6503 14.5556 61.9288 14.4591 62.2179 14.4179C62.5091 14.3762 62.8027 14.3534 63.0968 14.3497L63.0569 14.3991C63.0382 14.2503 63.0512 14.0994 63.095 13.956C63.1387 13.8126 63.2122 13.6801 63.3107 13.5671C63.5076 13.3293 63.7712 13.1558 64.0674 13.0689C64.6362 12.9044 65.219 13.0055 65.7595 13.0948L65.7125 13.123C65.8243 12.8375 66.0041 12.5836 66.2365 12.3836C66.4688 12.1835 66.7465 12.0433 67.0455 11.9752C67.3444 11.9071 67.6555 11.9131 67.9515 11.9927C68.2476 12.0723 68.5197 12.2232 68.7441 12.432L68.6807 12.4461C68.7863 12.2207 68.9424 12.0225 69.1367 11.8668C69.3311 11.7112 69.5586 11.6022 69.8017 11.5484C70.0258 11.49 70.2598 11.4807 70.4878 11.5213C70.7158 11.5619 70.9323 11.6513 71.1224 11.7834H71.0731C71.2203 11.5907 71.4093 11.4339 71.6258 11.3248C71.8424 11.2157 72.0809 11.1571 72.3234 11.1536C72.5355 11.1436 72.7474 11.1765 72.9465 11.2504C73.1456 11.3243 73.3277 11.4376 73.482 11.5837H73.4373C73.6017 11.3826 73.8132 11.2252 74.053 11.1254C74.2603 11.0319 74.4821 10.9747 74.7087 10.9562C75.0707 10.9161 75.4358 10.9988 75.7451 11.1912L75.8344 11.2476C75.8626 11.2687 75.8885 11.2922 75.912 11.3134C75.9587 11.3518 76.0034 11.3926 76.0459 11.4356C76.1101 11.5047 76.169 11.5785 76.2222 11.6565C76.2598 11.72 76.288 11.7693 76.3115 11.8046L76.3397 11.8563C76.3263 11.8419 76.3145 11.8261 76.3044 11.8093L76.2081 11.6659C76.1537 11.5904 76.094 11.519 76.0295 11.452C75.9874 11.41 75.9427 11.3707 75.8955 11.3345L75.818 11.2711L75.7287 11.217C75.4226 11.0371 75.0659 10.9628 74.7134 11.0055C74.4922 11.0279 74.2762 11.0866 74.0742 11.1794C73.8433 11.2756 73.6405 11.4283 73.4843 11.6236L73.4631 11.6495L73.442 11.626C73.2931 11.4864 73.1173 11.3785 72.9254 11.309C72.7335 11.2395 72.5295 11.2098 72.3257 11.2217C72.0908 11.228 71.8605 11.2883 71.6526 11.3979C71.4448 11.5075 71.265 11.6636 71.1271 11.8539L71.106 11.8845L71.0778 11.8633C70.895 11.7394 70.6876 11.6566 70.4697 11.6205C70.2519 11.5844 70.0288 11.5959 69.8158 11.6542C69.5844 11.7057 69.3679 11.8096 69.1829 11.9579C68.998 12.1062 68.8495 12.2949 68.7488 12.5096L68.7253 12.5613L68.6854 12.5237C68.4697 12.3265 68.2094 12.1845 67.9268 12.1099C67.6442 12.0354 67.3478 12.0304 67.0629 12.0956C66.778 12.1608 66.5131 12.2941 66.291 12.484C66.0689 12.674 65.8962 12.915 65.7877 13.1864V13.2193H65.7525C65.2119 13.13 64.6432 13.0337 64.1074 13.1911C63.8311 13.2746 63.5857 13.4382 63.4024 13.6611C63.3112 13.7649 63.243 13.8869 63.2025 14.019C63.162 14.151 63.15 14.2902 63.1673 14.4273V14.4743H63.118C62.5352 14.4907 61.9429 14.5213 61.4612 14.8127C61.2308 14.9545 61.0476 15.1614 60.9347 15.4073C60.8779 15.5224 60.8458 15.6482 60.8405 15.7765C60.8353 15.9048 60.8569 16.0328 60.9042 16.1522L60.9277 16.2063H60.8689C60.525 16.2141 60.1833 16.2638 59.8513 16.3544C59.5383 16.4426 59.2668 16.6392 59.0852 16.909C58.9959 17.0304 58.9446 17.1757 58.9379 17.3263C58.9312 17.4769 58.9694 17.6261 59.0476 17.755C59.1164 17.8777 59.2246 17.9736 59.3548 18.0269C59.4849 18.0802 59.6293 18.088 59.7644 18.0488L59.7973 18.037L59.809 18.0723C59.8863 18.3131 60.0282 18.5281 60.2192 18.6939C60.4103 18.8596 60.6431 18.9698 60.8924 19.0123C61.1038 19.0442 61.3197 19.027 61.5235 18.9623C61.7272 18.8975 61.9133 18.7868 62.0675 18.6387L62.091 18.6152L62.1051 18.6434C62.185 18.7934 62.2872 18.9305 62.4083 19.0499C62.514 19.1577 62.6296 19.2553 62.7537 19.3413C62.9446 19.4827 63.162 19.5842 63.393 19.6398C63.5367 19.6775 63.689 19.6659 63.8254 19.6069C63.8865 19.5552 63.9241 19.5176 63.9264 19.5223Z" fill="#455A64"/>
<path id="Vector_14" d="M56.9209 10.7C56.9177 10.6323 56.9224 10.5645 56.935 10.4979C56.9664 10.3041 57.0368 10.1186 57.1418 9.95267C57.3057 9.68452 57.5535 9.47798 57.8468 9.36515C58.044 9.29185 58.2543 9.26047 58.4644 9.27302C58.6744 9.28556 58.8794 9.34175 59.0665 9.438H59.0289C59.2355 8.99028 59.6042 8.63756 60.0606 8.45096C60.312 8.34286 60.5837 8.28997 60.8573 8.29585C61.1437 8.32248 61.427 8.37598 61.7033 8.45566C61.8449 8.48933 61.9906 8.502 62.1358 8.49326C62.2828 8.48262 62.4253 8.43754 62.5517 8.36165C62.8149 8.21595 63.0358 7.97859 63.3367 7.83288C63.6524 7.69018 64.0037 7.64548 64.3452 7.70455C64.6866 7.76362 65.0025 7.92375 65.252 8.16425H65.1838C65.3462 7.85496 65.5774 7.58715 65.8598 7.38154C66.1422 7.17593 66.468 7.03803 66.8122 6.97851C67.1564 6.91899 67.5097 6.93944 67.8447 7.03828C68.1797 7.13712 68.4875 7.3117 68.7442 7.54852H68.6785C68.869 7.21629 69.1509 6.94569 69.4906 6.7688C69.8303 6.59192 70.2136 6.51618 70.5951 6.55057C70.9765 6.58495 71.3401 6.72802 71.6427 6.9628C71.9453 7.19759 72.1742 7.51423 72.3023 7.87518L72.2624 7.85168C72.652 7.7973 73.0489 7.82776 73.4257 7.94099C73.7629 8.03572 74.0867 8.17314 74.3892 8.3499C74.8844 8.62941 75.3254 8.99557 75.6911 9.43095C75.9298 9.70574 76.1219 10.0177 76.2599 10.3545C76.2966 10.443 76.3265 10.5341 76.3492 10.6272C76.3592 10.6579 76.367 10.6893 76.3727 10.7212C76.3727 10.7212 76.3351 10.5943 76.2411 10.3639C76.0948 10.0338 75.8991 9.72791 75.6606 9.4568C75.2932 9.03101 74.8532 8.67374 74.361 8.40161C74.0616 8.2282 73.7409 8.09468 73.4069 8.00444C73.0393 7.89738 72.6533 7.86935 72.2741 7.92218H72.2459V7.89398C72.1193 7.54989 71.897 7.24911 71.6053 7.02706C71.3135 6.805 70.9644 6.6709 70.599 6.64053C70.2336 6.61016 69.8671 6.68479 69.5427 6.85564C69.2183 7.02649 68.9494 7.28645 68.7678 7.60492L68.7419 7.65192L68.7019 7.61667C68.4542 7.38496 68.156 7.21384 67.831 7.11674C67.5059 7.01964 67.1628 6.9992 66.8285 7.05704C66.4942 7.11488 66.1779 7.24942 65.9044 7.45009C65.6308 7.65076 65.4075 7.9121 65.252 8.2136L65.2238 8.2653L65.1838 8.223C64.9463 7.99711 64.6467 7.84734 64.3234 7.7929C64.0001 7.73847 63.668 7.78185 63.3696 7.91748C63.0852 8.05144 62.8643 8.28645 62.587 8.44391C62.4498 8.52365 62.2963 8.57107 62.1381 8.58256C61.9865 8.59007 61.8345 8.57582 61.6869 8.54026C61.4143 8.46162 61.135 8.40812 60.8526 8.38046C60.5891 8.37206 60.3269 8.42097 60.0841 8.52381C59.6427 8.69971 59.2836 9.0353 59.0783 9.46385L59.0642 9.49205L59.0383 9.47795C58.8587 9.38387 58.6615 9.32818 58.4592 9.31442C58.2569 9.30066 58.054 9.32914 57.8633 9.39805C57.5731 9.50309 57.3255 9.7004 57.1582 9.95972C57.053 10.1214 56.9797 10.3017 56.942 10.4908C56.9256 10.6295 56.9256 10.7 56.9209 10.7Z" fill="#455A64"/>
<path id="Vector_15" d="M78.5364 27.2775C78.5427 27.2374 78.5574 27.199 78.5797 27.1649C78.602 27.1309 78.6313 27.102 78.6656 27.0801C78.7471 27.0264 78.8409 26.994 78.9382 26.9861C79.0704 26.9814 79.2022 27.003 79.326 27.0496C79.4768 27.108 79.635 27.1452 79.796 27.16C79.9867 27.1577 80.1715 27.0933 80.3224 26.9767C80.4996 26.8452 80.649 26.6799 80.7619 26.4903C80.8911 26.2952 80.9969 26.0719 81.1638 25.8557C81.4763 25.4139 81.9816 25.1037 82.4422 24.7042C82.6831 24.5004 82.8805 24.2503 83.0227 23.9686C83.0993 23.823 83.1437 23.6626 83.1526 23.4984C83.1615 23.3341 83.1348 23.1698 83.0744 23.0168C82.9062 22.7065 82.701 22.4177 82.4634 22.1567C82.345 22.0094 82.2521 21.8434 82.1884 21.6655C82.1313 21.4789 82.1217 21.281 82.1602 21.0897C82.2595 20.715 82.3982 20.3519 82.5738 20.0063C82.6536 19.8311 82.7067 19.645 82.7313 19.454C82.7506 19.2636 82.7068 19.072 82.6067 18.9088C82.4378 18.7036 82.2444 18.5197 82.031 18.3613C81.9259 18.2714 81.8362 18.1651 81.7654 18.0463C81.6971 17.9245 81.663 17.7864 81.6667 17.6468C81.691 17.3848 81.7527 17.1276 81.85 16.883C81.9311 16.6485 81.9607 16.3992 81.9369 16.1522C81.9171 15.9168 81.8485 15.6881 81.7357 15.4805C81.6228 15.273 81.4681 15.0912 81.2813 14.9466C80.9286 14.6768 80.4872 14.5501 80.0451 14.5917H79.9934V14.54C80.0665 14.1621 80.0583 13.7729 79.9691 13.3985C79.88 13.024 79.712 12.6729 79.4764 12.3685C79.2786 12.1154 79.0336 11.9031 78.7549 11.7434C78.5197 11.6051 78.2619 11.5097 77.9935 11.4613C77.6141 11.3972 77.2243 11.4428 76.8701 11.593C76.7765 11.6311 76.6861 11.6766 76.5999 11.7293L76.5317 11.7645H76.5059L76.527 11.7481L76.5928 11.7058C76.6783 11.6498 76.7688 11.6018 76.8631 11.5624C77.2185 11.3993 77.6144 11.3453 78.0005 11.4073C78.2755 11.4519 78.54 11.5467 78.7808 11.687C79.0675 11.8476 79.3205 12.0623 79.5257 12.3191C79.7693 12.6301 79.9435 12.9896 80.0367 13.3735C80.1299 13.7573 80.14 14.1566 80.0663 14.5447L80.024 14.5C80.4854 14.4529 80.9476 14.5831 81.3165 14.8643C81.5152 15.0142 81.6805 15.2038 81.8018 15.4211C81.9232 15.6384 81.998 15.8785 82.0215 16.1263C82.0458 16.3836 82.0154 16.6431 81.9322 16.8877C81.8384 17.1251 81.7775 17.3742 81.7513 17.628C81.7549 17.7548 81.787 17.8791 81.8452 17.9918C81.9034 18.1045 81.9861 18.2026 82.0874 18.279C82.3087 18.4401 82.5079 18.6298 82.6796 18.843C82.7889 19.0227 82.8367 19.233 82.8159 19.4423C82.7924 19.6423 82.7377 19.8374 82.6537 20.0204C82.4805 20.3608 82.3435 20.7184 82.2448 21.0874C82.2066 21.2642 82.2147 21.448 82.2683 21.6208C82.3289 21.7908 82.417 21.9496 82.5292 22.0909C82.7712 22.3568 82.9788 22.6521 83.1473 22.9698C83.2176 23.1342 83.2458 23.3135 83.2295 23.4915C83.2138 23.6631 83.1668 23.8304 83.0909 23.985C82.9446 24.2754 82.7407 24.5329 82.4916 24.7418C82.0215 25.146 81.5186 25.4468 81.2131 25.8745C81.0604 26.086 80.9405 26.3069 80.8089 26.5044C80.6855 26.6982 80.5259 26.8666 80.3389 27.0002C80.1784 27.1208 79.9827 27.1852 79.7819 27.1835C79.6202 27.1683 79.4617 27.1287 79.3119 27.066C79.1924 27.0179 79.0646 26.994 78.9359 26.9955C78.8418 27.0003 78.7505 27.0285 78.6703 27.0778C78.603 27.126 78.5554 27.197 78.5364 27.2775Z" fill="#455A64"/>
<path id="Vector_16" d="M85.5972 26.9416C85.594 26.9213 85.594 26.9007 85.5972 26.8805L85.6278 26.7042C85.656 26.5467 85.6983 26.3211 85.7523 26.0321C85.8064 25.743 85.8816 25.3858 85.9286 24.9675C86.0024 24.4981 85.9421 24.0175 85.7547 23.5809C85.6419 23.3459 85.475 23.1109 85.3269 22.8759C85.2488 22.7474 85.1879 22.6091 85.146 22.4646C85.1013 22.3118 85.0948 22.1504 85.1272 21.9946C85.1906 21.6773 85.3833 21.4024 85.475 21.0921C85.5221 20.939 85.5221 20.7753 85.475 20.6221C85.4174 20.4624 85.3341 20.3131 85.2282 20.1803C85.1159 20.0393 85.0167 19.8883 84.9321 19.7291C84.8493 19.5576 84.8214 19.3647 84.8522 19.1768C84.9551 18.8118 85.1069 18.4624 85.3034 18.1381C85.3907 17.9727 85.4427 17.7911 85.4562 17.6046C85.4589 17.5118 85.4433 17.4195 85.4102 17.3327C85.3772 17.246 85.3273 17.1667 85.2635 17.0993C85.005 16.815 84.6031 16.6857 84.3046 16.3943C84.1573 16.2417 84.0612 16.047 84.0297 15.8373C84.0061 15.6367 84.0061 15.434 84.0297 15.2333C84.0461 15.0359 84.0673 14.8409 84.0649 14.6505C84.0671 14.4647 84.0227 14.2813 83.9357 14.117C83.7524 13.7904 83.3905 13.6329 83.0567 13.4943C82.7063 13.3788 82.3854 13.1879 82.1167 12.9349C81.8929 12.6696 81.72 12.3653 81.6067 12.0372C81.5106 11.7299 81.3855 11.4325 81.2331 11.1489C80.898 10.6799 80.4321 10.3202 79.8935 10.1148C79.4516 9.94068 78.9759 9.86916 78.5022 9.90566C78.1449 9.93693 77.7945 10.0233 77.4635 10.1618C77.2555 10.2524 77.0558 10.3609 76.8666 10.4861L76.7162 10.5801L76.6621 10.6107L76.7115 10.5731L76.8572 10.4697C77.0444 10.3387 77.2435 10.2254 77.4517 10.1313C77.7845 9.98505 78.1382 9.89225 78.4999 9.85631C78.9792 9.81509 79.4615 9.88423 79.91 10.0584C80.462 10.265 80.9404 10.6306 81.2848 11.1089C81.4527 11.3875 81.5928 11.6819 81.7031 11.9879C81.815 12.3062 81.9838 12.6017 82.2013 12.8597C82.4607 13.1016 82.7693 13.2844 83.1061 13.3956C83.2805 13.4649 83.4494 13.5474 83.6114 13.6423C83.7853 13.7397 83.9291 13.8831 84.0269 14.0568C84.1247 14.2305 84.1728 14.4278 84.166 14.627C84.1657 14.8249 84.1547 15.0226 84.1331 15.2192C84.1096 15.4128 84.1096 15.6085 84.1331 15.8021C84.1598 15.9942 84.247 16.1729 84.3822 16.312C84.6595 16.5917 85.0614 16.721 85.3434 17.0171C85.4866 17.1702 85.5635 17.3738 85.5573 17.5834C85.5437 17.7815 85.4884 17.9746 85.3951 18.1498C85.2329 18.4976 85.0097 18.8125 84.9509 19.1651C84.9215 19.3377 84.947 19.5153 85.0238 19.6727C85.1052 19.8274 85.2004 19.9745 85.3081 20.1122C85.4211 20.2525 85.5086 20.4116 85.5667 20.5822C85.6196 20.7513 85.6196 20.9325 85.5667 21.1016C85.4679 21.4282 85.2776 21.6985 85.2165 21.9969C85.1701 22.2896 85.2374 22.5889 85.4045 22.8336C85.5455 23.0827 85.7147 23.3036 85.8299 23.5527C86.016 23.9979 86.0738 24.4864 85.9967 24.9628C85.945 25.3834 85.8604 25.7383 85.804 26.0297C85.7476 26.3211 85.6959 26.5397 85.663 26.6995C85.6466 26.7723 85.6348 26.8288 85.6254 26.8734C85.619 26.8972 85.6095 26.9201 85.5972 26.9416Z" fill="#455A64"/>
<path id="Vector_17" d="M84.8897 22.752L84.9367 22.7755C84.9802 22.8047 85.0157 22.8443 85.0401 22.8906C85.0769 22.9847 85.0901 23.0863 85.0786 23.1867C85.0671 23.287 85.0313 23.383 84.9743 23.4664C84.8892 23.582 84.7888 23.6856 84.6759 23.7742C84.5432 23.8765 84.4253 23.9967 84.3257 24.1315C84.2314 24.2968 84.1819 24.484 84.1823 24.6743C84.1823 24.8788 84.1823 25.0974 84.1588 25.33C84.1502 25.4549 84.1131 25.5762 84.0504 25.6846C83.9877 25.7929 83.901 25.8855 83.7969 25.9551C83.5807 26.0985 83.3269 26.1596 83.1037 26.3077C82.8896 26.4758 82.7482 26.7198 82.7088 26.9892C82.6454 27.2642 82.6266 27.5626 82.5443 27.8611C82.5063 28.0145 82.4402 28.1595 82.3493 28.2888C82.2511 28.4186 82.1271 28.5267 81.985 28.6061C81.6916 28.748 81.3855 28.8621 81.0708 28.9468C80.7536 29.0289 80.4786 29.2268 80.3 29.5015C80.1664 29.8156 80.0709 30.1446 80.0156 30.4814C79.9718 30.6556 79.897 30.8203 79.7947 30.9679C79.686 31.1104 79.5461 31.2262 79.3858 31.3063C79.0745 31.4398 78.7488 31.5368 78.4152 31.5954C78.1016 31.6556 77.8034 31.7787 77.5386 31.9573C77.2988 32.1568 77.0451 32.339 76.7795 32.5025C76.6432 32.5779 76.491 32.6198 76.3354 32.6247C76.1855 32.6246 76.0368 32.5984 75.8959 32.5472C75.7643 32.5003 75.6301 32.4611 75.494 32.4297C75.3619 32.4082 75.2276 32.4043 75.0945 32.4179C74.8416 32.4598 74.5952 32.534 74.3613 32.6388C74.1263 32.7352 73.91 32.8315 73.6891 32.9044C73.2894 33.0372 72.8574 33.0372 72.4577 32.9044C72.157 32.8105 71.8814 32.6498 71.6516 32.4344C71.5068 32.2978 71.3847 32.1392 71.2897 31.9644C71.2563 31.9042 71.228 31.8413 71.2051 31.7764C71.3221 32.0132 71.4813 32.2266 71.6751 32.4062C71.9039 32.6138 72.176 32.768 72.4718 32.8574C72.8636 32.9774 73.2835 32.9691 73.6703 32.8339C73.8865 32.761 74.1028 32.6647 74.3354 32.566C74.5746 32.4548 74.8275 32.3758 75.0875 32.331C75.2262 32.3111 75.367 32.3111 75.5058 32.331C75.6452 32.3616 75.7825 32.4008 75.917 32.4485C76.0504 32.4969 76.1912 32.5216 76.333 32.5213C76.4771 32.515 76.6178 32.4756 76.7443 32.4062C77.0053 32.2421 77.2549 32.0608 77.4916 31.8633C77.764 31.6784 78.0709 31.5504 78.394 31.4873C78.7174 31.4283 79.0328 31.3321 79.3341 31.2006C79.4829 31.1274 79.6125 31.0204 79.7125 30.888C79.8094 30.7504 79.8795 30.5957 79.9193 30.4321C79.9764 30.0877 80.0751 29.7516 80.213 29.4309C80.2996 29.2783 80.4222 29.1492 80.5702 29.0549C80.7175 28.9639 80.8753 28.8913 81.0403 28.8387C81.3481 28.7645 81.6492 28.6647 81.9403 28.5403C82.0717 28.465 82.1867 28.3643 82.2788 28.2441C82.364 28.1223 82.4269 27.9862 82.4644 27.8423C82.5443 27.5556 82.5631 27.2595 82.6289 26.9774C82.6742 26.69 82.8282 26.4308 83.059 26.2536C83.294 26.0962 83.5525 26.0374 83.764 25.9034C83.8607 25.8398 83.9415 25.7547 84.0002 25.6549C84.0589 25.5551 84.0938 25.4431 84.1024 25.3277C84.1306 25.1068 84.1165 24.8858 84.1306 24.679C84.133 24.4795 84.1881 24.284 84.2905 24.1127C84.3928 23.975 84.5147 23.8531 84.6524 23.7507C84.7654 23.6667 84.8659 23.567 84.9508 23.4546C85.0072 23.376 85.0437 23.285 85.0572 23.1892C85.0707 23.0934 85.0608 22.9958 85.0284 22.9047C84.9979 22.8415 84.9497 22.7884 84.8897 22.752Z" fill="#455A64"/>
<path id="Vector_18" d="M70.6718 23.8563C70.7572 23.8052 70.8591 23.7889 70.9562 23.8107C71.0533 23.8326 71.1383 23.891 71.1936 23.9738C71.5461 24.4979 71.8986 25.022 72.2534 25.5484L72.3733 25.7223C72.0884 25.968 71.7723 26.175 71.4333 26.338C71.286 26.4064 71.1256 26.4418 70.9632 26.4418C70.8009 26.4418 70.6405 26.4064 70.4932 26.338C70.2684 26.1987 70.0938 25.9912 69.995 25.7458C69.8328 25.3486 69.7012 24.9421 69.8822 24.5543C70.0138 24.2699 70.4227 24.0161 70.6718 23.8563Z" fill="#FF9A6C"/>
<path id="Vector_19" d="M62.8359 18.1564C62.6768 18.1132 62.5117 18.0965 62.3471 18.1071C61.8896 18.1276 61.4545 18.311 61.1204 18.6241C60.8869 18.8368 60.7059 19.1006 60.5916 19.3949C60.4663 19.7349 60.4228 20.0996 60.4647 20.4595C60.5081 20.8583 60.6529 21.2394 60.8853 21.5664C61.1377 21.9184 61.4909 22.1855 61.8982 22.3326C62.3028 22.4837 62.7418 22.5179 63.1649 22.4313C63.5596 22.3498 63.9221 22.1555 64.2084 21.8719C64.4499 21.6343 64.6335 21.3444 64.7452 21.0245C64.8568 20.7046 64.8935 20.3634 64.8523 20.0271C64.8081 19.7711 64.713 19.5266 64.5726 19.308C64.471 19.142 64.3469 18.9909 64.2037 18.8591C64.1124 18.7764 64.0094 18.7075 63.8982 18.6546C63.8605 18.6336 63.8189 18.6208 63.776 18.617C63.9232 18.6852 64.0575 18.7782 64.1731 18.892C64.4891 19.201 64.7003 19.6013 64.7771 20.0365C64.8111 20.3599 64.7712 20.6868 64.6605 20.9925C64.5498 21.2982 64.3711 21.5748 64.1379 21.8014C63.864 22.0688 63.5189 22.2516 63.1438 22.3279C62.7398 22.4073 62.3216 22.3732 61.9358 22.2291C61.5494 22.0899 61.2137 21.8377 60.9723 21.5053C60.7486 21.1931 60.6079 20.8292 60.5634 20.4478C60.5207 20.1029 60.5594 19.7528 60.6762 19.4255C60.7826 19.1426 60.9522 18.8878 61.1721 18.6805C61.492 18.375 61.9064 18.1877 62.3471 18.1494C62.6667 18.1282 62.8336 18.1705 62.8359 18.1564Z" fill="#E0E0E0"/>
<path id="Vector_20" d="M72.3533 20.0065C72.2664 20.1425 72.1294 20.2389 71.9721 20.275C71.8147 20.311 71.6495 20.2838 71.512 20.1992C71.4422 20.1619 71.3807 20.111 71.3309 20.0494C71.2812 19.9879 71.2443 19.9171 71.2224 19.8411C71.2005 19.7651 71.194 19.6854 71.2034 19.6069C71.2128 19.5283 71.2378 19.4524 71.277 19.3837C71.3644 19.2482 71.5013 19.1522 71.6584 19.1162C71.8156 19.0802 71.9807 19.107 72.1183 19.191C72.1885 19.2279 72.2506 19.2785 72.3007 19.34C72.3508 19.4014 72.3879 19.4724 72.4099 19.5486C72.4319 19.6248 72.4382 19.7046 72.4284 19.7833C72.4187 19.862 72.3932 19.9379 72.3533 20.0065Z" fill="#263238"/>
<path id="Vector_21" d="M77.2656 23.4357C77.1778 23.5708 77.0409 23.6664 76.8839 23.7024C76.7269 23.7383 76.5621 23.7118 76.4242 23.6285C76.3544 23.5909 76.2928 23.5397 76.243 23.478C76.1933 23.4163 76.1563 23.3452 76.1344 23.269C76.1126 23.1928 76.1061 23.113 76.1155 23.0343C76.1249 22.9556 76.15 22.8795 76.1892 22.8106C76.277 22.6756 76.4139 22.5799 76.5709 22.544C76.7279 22.508 76.8927 22.5345 77.0306 22.6179C77.1004 22.6555 77.162 22.7066 77.2118 22.7683C77.2615 22.8301 77.2984 22.9011 77.3203 22.9773C77.3422 23.0535 77.3487 23.1333 77.3393 23.2121C77.3299 23.2908 77.3048 23.3668 77.2656 23.4357Z" fill="#263238"/>
<path id="Vector_22" d="M78.6705 22.0813C78.5694 22.1236 78.3744 21.5854 77.8432 21.2846C77.3121 20.9838 76.7504 21.0755 76.7363 20.965C76.7363 20.9157 76.8632 20.8146 77.1124 20.7676C77.4338 20.7088 77.7658 20.7661 78.049 20.9292C78.3322 21.0924 78.5482 21.3507 78.6587 21.6583C78.741 21.898 78.7198 22.0649 78.6705 22.0813Z" fill="#263238"/>
<path id="Vector_23" d="M73.6809 19.0903C73.5563 19.1185 73.373 18.4863 72.7761 18.0633C72.1791 17.6403 71.5211 17.652 71.5117 17.5275C71.5117 17.4687 71.6715 17.3794 71.9676 17.3653C72.3547 17.3556 72.7344 17.4728 73.0487 17.699C73.3608 17.9229 73.5891 18.2447 73.6973 18.6132C73.7749 18.9046 73.7373 19.0785 73.6809 19.0903Z" fill="#263238"/>
<path id="Vector_24" d="M70.9523 26.3848C70.9523 26.3848 70.8677 26.4177 70.7173 26.3848C70.4966 26.3313 70.2978 26.2106 70.1486 26.0393C69.9204 25.7927 69.7692 25.4848 69.7138 25.1534C69.6779 24.9506 69.7007 24.7419 69.7796 24.5517C69.87 24.3541 70.0043 24.1798 70.1721 24.0418C70.3328 23.908 70.5087 23.7936 70.6962 23.701C70.7482 23.6686 70.8067 23.6478 70.8675 23.6401C70.9284 23.6324 70.9902 23.6379 71.0487 23.6563C71.1503 23.7072 71.2328 23.7897 71.2837 23.8913L71.7913 24.6998C71.9584 24.9453 72.0979 25.2086 72.2073 25.4847C72.0012 25.2707 71.8199 25.0342 71.6668 24.7797C71.4975 24.5447 71.3166 24.2744 71.1239 23.9948C71.0205 23.8255 70.9453 23.7856 70.7761 23.8772C70.6027 23.9666 70.4396 24.0745 70.2896 24.1992C70.1445 24.3059 70.0303 24.449 69.9585 24.6141C69.8866 24.7792 69.8598 24.9604 69.8807 25.1393C69.9269 25.4398 70.0518 25.7227 70.2426 25.9594C70.3705 26.1214 70.5392 26.2463 70.7314 26.3214C70.8677 26.366 70.9547 26.3684 70.9523 26.3848Z" fill="#263238"/>
<path id="Vector_25" d="M92.2445 17.2421C92.1555 16.955 92.0325 16.6797 91.8779 16.4219C91.6858 16.1295 91.4402 15.876 91.1541 15.6746C90.778 15.4093 90.337 15.2509 89.878 15.2163H89.8051V15.1411C89.8501 14.531 89.6553 13.9273 89.2622 13.4585C89.0472 13.1819 88.7737 12.9563 88.4612 12.7979C88.1488 12.6394 87.8052 12.552 87.455 12.5419H87.3634V12.4503C87.3438 11.4665 86.9476 10.5278 86.2565 9.82754C85.7153 9.28567 85.0187 8.92588 84.2636 8.7982C83.5737 8.67831 82.8641 8.74984 82.2119 9.005L82.1696 9.02145L82.1297 8.9956C81.4675 8.55148 80.7199 8.25051 79.9347 8.11197C79.3238 7.9989 78.6989 7.98225 78.0828 8.06261C77.5406 8.14509 77.0083 8.2829 76.4941 8.47388C76.4941 8.47388 76.5247 8.45038 76.5905 8.41748C76.6563 8.38458 76.755 8.33288 76.8866 8.28117C77.2653 8.1311 77.6594 8.02313 78.0617 7.95921C78.6882 7.858 79.3269 7.858 79.9535 7.95921C80.7632 8.09101 81.5359 8.39211 82.2213 8.84285H82.1391C82.8194 8.56666 83.5631 8.48528 84.2871 8.60784C85.0825 8.73667 85.817 9.11335 86.3857 9.68418C87.1133 10.4188 87.5278 11.407 87.542 12.4409L87.4503 12.3492C87.827 12.362 88.1962 12.458 88.5314 12.6302C88.8666 12.8025 89.1595 13.0468 89.3892 13.3456C89.8051 13.8481 90.0075 14.4935 89.9532 15.1435L89.8874 15.0659C90.3706 15.1075 90.8323 15.2843 91.2199 15.5759C91.5124 15.7899 91.7586 16.0609 91.9437 16.3726C92.0608 16.5682 92.1494 16.7795 92.2069 17.0001C92.2287 17.079 92.2413 17.1603 92.2445 17.2421Z" fill="#263238"/>
<path id="Vector_26" d="M77.1919 5.13244C76.9485 5.0912 76.7174 4.99649 76.515 4.85513C76.2275 4.66974 75.98 4.42868 75.7871 4.14615C75.5942 3.86362 75.4597 3.54534 75.3917 3.21006C75.2987 2.735 75.3537 2.24285 75.5492 1.8C75.7712 1.28868 76.1486 0.86028 76.6279 0.575593C77.1712 0.269207 77.8118 0.184187 78.4163 0.338232C79.0773 0.49214 79.6513 0.899849 80.0144 1.47333L79.9086 1.42868C80.3208 1.33119 80.7539 1.37849 81.1354 1.56264C81.462 1.70972 81.7411 1.94491 81.9414 2.24182C82.1264 2.53429 82.2182 2.87603 82.2047 3.22181C82.196 3.54705 82.1039 3.86461 81.9373 4.14403C81.7706 4.42346 81.5349 4.65537 81.2529 4.81753L81.2176 4.64832C81.4715 4.67799 81.7143 4.76959 81.9245 4.91506C82.1347 5.06054 82.306 5.25543 82.4232 5.48261C82.5349 5.68435 82.6019 5.90773 82.6197 6.13762C82.6376 6.36752 82.6058 6.59856 82.5266 6.81512C82.3959 7.16571 82.1725 7.47432 81.8804 7.70813C81.5882 7.94193 81.2382 8.09219 80.8674 8.14292C80.3871 8.20776 79.8982 8.13525 79.4574 7.93377C79.3412 7.88389 79.2296 7.82413 79.1237 7.75516C79.0532 7.70581 79.0179 7.67996 79.0203 7.67525C79.0226 7.67055 79.1754 7.76456 79.4785 7.87971C79.9103 8.05122 80.3802 8.10397 80.8392 8.03247C81.1848 7.9781 81.5093 7.83183 81.7789 7.60898C82.0484 7.38613 82.2531 7.09489 82.3715 6.76576C82.4407 6.56956 82.4669 6.36076 82.4482 6.15354C82.4295 5.94633 82.3665 5.74556 82.2634 5.56486C82.1584 5.36383 82.0059 5.19151 81.8192 5.0629C81.6324 4.93428 81.417 4.85328 81.1918 4.82693L80.8886 4.80343L81.1542 4.65772C81.407 4.51 81.6179 4.30011 81.7667 4.04798C81.9156 3.79584 81.9976 3.50983 82.0049 3.21711C82.0153 2.90954 81.9335 2.60588 81.7699 2.34522C81.5946 2.082 81.3508 1.87156 81.0649 1.73654C80.7237 1.57169 80.3364 1.52857 79.9674 1.61434L79.8992 1.63314L79.8616 1.57204C79.5263 1.04105 78.9966 0.662325 78.3857 0.516841C77.8237 0.371548 77.2273 0.449895 76.7219 0.7354C76.2693 0.998214 75.9102 1.39591 75.6949 1.87285C75.5066 2.28515 75.4477 2.74478 75.5257 3.19126C75.6486 3.84096 76.0205 4.41693 76.5621 4.79638C76.7603 4.92911 76.9713 5.04169 77.1919 5.13244Z" fill="#263238"/>
<path id="Vector_27" d="M61.8828 3.19785C61.8834 3.15721 61.8897 3.11686 61.9016 3.07799C61.9276 2.96481 61.963 2.85397 62.0074 2.74663C62.1729 2.337 62.4264 1.96875 62.75 1.66793C63.244 1.19735 63.8843 0.910343 64.5643 0.854794C64.9946 0.822149 65.427 0.877633 65.8352 1.01785C66.2433 1.15807 66.6185 1.38007 66.9379 1.67028L66.8321 1.65618C67.6333 1.23286 68.5598 1.11111 69.4431 1.31307C70.1084 1.47054 70.7164 1.81078 71.1986 2.29541C71.6384 2.7373 71.9615 3.28162 72.1387 3.87938L72.0658 3.81827C72.7642 3.9161 73.4264 4.18939 73.9905 4.61261C74.4279 4.93743 74.8002 5.34163 75.088 5.80411C75.274 6.10253 75.418 6.42518 75.5158 6.76295C75.5534 6.88132 75.5778 7.00349 75.5886 7.12722C75.4443 6.68254 75.2462 6.25715 74.9987 5.86052C74.7071 5.4197 74.3366 5.03648 73.9059 4.73012C73.3566 4.33269 72.7169 4.07828 72.0447 3.98983H71.9882L71.9718 3.93578C71.7967 3.36926 71.4852 2.8544 71.0647 2.43641C70.6086 1.97396 70.0323 1.64833 69.4008 1.49637C68.5621 1.30437 67.6825 1.41682 66.9191 1.81364L66.8603 1.84419L66.8133 1.79954C66.5128 1.52395 66.1597 1.31178 65.7753 1.1757C65.3909 1.03963 64.983 0.982436 64.576 1.00755C63.9269 1.05202 63.3113 1.31264 62.8276 1.74783C62.5066 2.03171 62.2467 2.37793 62.0638 2.76543C61.9369 3.04274 61.8969 3.20255 61.8828 3.19785Z" fill="#263238"/>
<path id="Vector_28" d="M47.4746 20.8499C47.4746 20.8499 47.7284 20.3987 49.6861 20.6549C51.6437 20.911 59.399 26.281 59.399 26.281C59.399 26.281 57.989 31.8296 62.2544 32.8872C65.3612 33.658 67.0087 32.7908 67.0087 32.7908C67.0087 32.7908 72.2094 39.2583 72.6348 41.8951C72.6348 41.8951 47.571 59.4316 51.639 57.5256L47.4746 57.5726V20.8499Z" fill="#03A6A9"/>
<path id="Vector_29" d="M72.2277 40.7085C72.2958 40.8942 73.2664 42.0504 72.3052 47.2018C71.431 51.8809 67.605 56.6022 67.605 56.6022L59.9766 49.7376L72.2277 40.7085Z" fill="#03A6A9"/>
<path id="Vector_30" d="M68.2499 44.3765C68.2149 44.4189 68.1755 44.4575 68.1324 44.4916L67.7822 44.7971C67.472 45.058 67.0208 45.4317 66.4544 45.8829C65.324 46.7853 63.7448 48.0097 61.9892 49.3446C60.2337 50.6794 58.6286 51.8756 57.4653 52.7452L56.0834 53.7557L55.7027 54.026C55.661 54.0604 55.6152 54.0896 55.5664 54.1129C55.6039 54.0741 55.6448 54.0387 55.6886 54.0072L56.0552 53.7181L57.4136 52.677L61.914 49.2576C63.6719 47.9228 65.2582 46.7101 66.4004 45.8241L67.7517 44.7689L68.116 44.4822C68.1574 44.443 68.2022 44.4076 68.2499 44.3765Z" fill="#263238"/>
<path id="Vector_31" d="M55.5665 0.065918H0.0546875V77.2222H55.5665V0.065918Z" fill="white"/>
<path id="Vector_32" d="M55.5665 0.065918H0.0546875V27.9922H55.5665V0.065918Z" fill="#03A6A9"/>
<path id="Vector_33" d="M49.7803 2.30273H39.9146C38.4505 2.30273 37.2637 3.48959 37.2637 4.95365V5.22861C37.2637 6.69267 38.4505 7.87953 39.9146 7.87953H49.7803C51.2444 7.87953 52.4312 6.69267 52.4312 5.22861V4.95365C52.4312 3.48959 51.2444 2.30273 49.7803 2.30273Z" fill="#263238"/>
<path id="Vector_34" d="M45.9539 34.8306C45.9539 34.8635 38.3207 34.8917 28.9109 34.8917C19.5011 34.8917 11.8633 34.8635 11.8633 34.8306C11.8633 34.7977 19.4941 34.7695 28.9109 34.7695C38.3278 34.7695 45.9539 34.7954 45.9539 34.8306Z" fill="#263238"/>
<path id="Vector_35" d="M45.9539 42.3511C45.9539 42.384 38.3207 42.4122 28.9109 42.4122C19.5011 42.4122 11.8633 42.384 11.8633 42.3511C11.8633 42.3182 19.4941 42.29 28.9109 42.29C38.3278 42.29 45.9539 42.3182 45.9539 42.3511Z" fill="#263238"/>
<path id="Vector_36" d="M45.9539 49.8736C45.9539 49.9065 38.3207 49.9347 28.9109 49.9347C19.5011 49.9347 11.8633 49.9065 11.8633 49.8736C11.8633 49.8407 19.4941 49.8125 28.9109 49.8125C38.3278 49.8125 45.9539 49.8384 45.9539 49.8736Z" fill="#263238"/>
<path id="Vector_37" d="M45.8152 58.5439H12.4696C9.191 58.5439 6.5332 61.2017 6.5332 64.4803V65.1031C6.5332 68.3816 9.191 71.0394 12.4696 71.0394H45.8152C49.0937 71.0394 51.7515 68.3816 51.7515 65.1031V64.4803C51.7515 61.2017 49.0937 58.5439 45.8152 58.5439Z" fill="#03A6A9"/>
<path id="Vector_38" d="M14.569 23.673C14.3244 23.6163 14.0919 23.516 13.8828 23.3769L14.2259 22.6084C14.4042 22.7234 14.5981 22.8121 14.8017 22.8716C15.0102 22.9367 15.2272 22.9707 15.4456 22.9727C15.8451 22.9727 16.0473 22.8716 16.0473 22.6718C16.0469 22.6196 16.0301 22.5689 15.9994 22.5267C15.9686 22.4845 15.9253 22.4531 15.8757 22.4368C15.697 22.3658 15.5121 22.3115 15.3234 22.2747C15.0839 22.2284 14.8482 22.164 14.6184 22.082C14.4327 22.0145 14.267 21.9014 14.1366 21.7529C13.9969 21.5809 13.9257 21.3633 13.9369 21.1419C13.934 20.9239 13.9989 20.7104 14.1225 20.5309C14.2604 20.3374 14.4514 20.188 14.6724 20.1008C14.9587 19.9879 15.2649 19.9343 15.5725 19.9434C15.8138 19.9436 16.0543 19.9712 16.2893 20.0256C16.5078 20.0712 16.718 20.1504 16.9121 20.2606L16.5901 21.0362C16.2786 20.8571 15.9271 20.7593 15.5678 20.7518C15.4111 20.7401 15.2542 20.7718 15.1143 20.8435C15.0717 20.8664 15.0359 20.9002 15.0107 20.9415C14.9856 20.9828 14.9718 21.0301 14.9709 21.0785C14.9719 21.1285 14.9889 21.1769 15.0193 21.2167C15.0497 21.2564 15.0921 21.2854 15.1401 21.2994C15.316 21.3673 15.4977 21.4192 15.683 21.4545C15.9223 21.5009 16.1579 21.5645 16.388 21.6448C16.5683 21.7161 16.7293 21.8288 16.858 21.9739C17.0009 22.1433 17.0733 22.3612 17.0601 22.5825C17.0624 22.7972 16.9984 23.0072 16.8768 23.1842C16.7357 23.3765 16.5436 23.5254 16.3222 23.6142C16.0368 23.7276 15.7314 23.782 15.4245 23.774C15.1362 23.7773 14.8487 23.7433 14.569 23.673Z" fill="white"/>
<path id="Vector_39" d="M18.2914 20.8452H17.1562V20.0156H20.4652V20.8452H19.3348V23.71H18.2914V20.8452Z" fill="white"/>
<path id="Vector_40" d="M23.143 22.9937H21.5826L21.2912 23.6988H20.2266L21.8552 20.0044H22.8845L24.5296 23.6988H23.4439L23.143 22.9937ZM22.8375 22.2229L22.3675 21.0478L21.8975 22.2229H22.8375Z" fill="white"/>
<path id="Vector_41" d="M28.3298 20.0156V23.71H27.4697L25.8387 21.743V23.71H24.8164V20.0156H25.6765L27.3052 21.985V20.0156H28.3298Z" fill="white"/>
<path id="Vector_42" d="M29.0625 20.0158H30.8086C31.1806 20.0116 31.5486 20.092 31.885 20.2508C32.1851 20.3902 32.4383 20.614 32.6135 20.8947C32.7829 21.1919 32.872 21.528 32.872 21.87C32.872 22.212 32.7829 22.5482 32.6135 22.8453C32.4389 23.1266 32.1856 23.3505 31.885 23.4892C31.549 23.6492 31.1807 23.7296 30.8086 23.7242H29.0625V20.0158ZM30.7663 22.8759C31.046 22.8891 31.3199 22.793 31.5301 22.6079C31.7144 22.404 31.8164 22.139 31.8164 21.8641C31.8164 21.5893 31.7144 21.3242 31.5301 21.1203C31.3208 20.9335 31.0465 20.8365 30.7663 20.8501H30.1083V22.8759H30.7663Z" fill="white"/>
<path id="Vector_43" d="M35.8481 22.9937H34.2877L33.9962 23.6988H32.9316L34.5603 20.0044H35.5896L37.2347 23.6988H36.1372L35.8481 22.9937ZM35.5426 22.2229L35.0726 21.0478L34.6026 22.2229H35.5426Z" fill="white"/>
<path id="Vector_44" d="M39.1356 22.7281H38.5645V23.7105H37.5234V20.0161H39.2108C39.5092 20.0098 39.8055 20.0666 40.0804 20.183C40.3162 20.2803 40.5165 20.4476 40.6544 20.6624C40.7922 20.8771 40.8609 21.1289 40.8512 21.3839C40.8625 21.6295 40.7998 21.8728 40.6712 22.0823C40.5425 22.2919 40.3539 22.4579 40.1297 22.5589L40.9264 23.7199H39.8077L39.1356 22.7281ZM39.6315 20.982C39.4912 20.8787 39.3188 20.8287 39.145 20.841H38.5645V21.922H39.145C39.3188 21.9343 39.4912 21.8843 39.6315 21.781C39.6867 21.7313 39.7299 21.6698 39.758 21.601C39.786 21.5322 39.7982 21.458 39.7936 21.3839C39.7987 21.3096 39.7874 21.2352 39.7606 21.1657C39.7338 21.0963 39.6921 21.0336 39.6385 20.982H39.6315Z" fill="white"/>
<path id="Vector_45" d="M41.4238 20.0158H43.1629C43.5349 20.0116 43.9029 20.092 44.2392 20.2508C44.539 20.3909 44.7919 20.6145 44.9678 20.8947C45.1372 21.1919 45.2262 21.528 45.2262 21.87C45.2262 22.212 45.1372 22.5482 44.9678 22.8453C44.7925 23.1261 44.5394 23.3498 44.2392 23.4892C43.9033 23.6492 43.535 23.7296 43.1629 23.7242H41.4238V20.0158ZM43.1277 22.8759C43.4068 22.8897 43.6802 22.7935 43.8891 22.6079C44.0749 22.4048 44.1779 22.1394 44.1779 21.8641C44.1779 21.5888 44.0749 21.3235 43.8891 21.1203C43.6809 20.9332 43.4072 20.8361 43.1277 20.8501H42.4579V22.8759H43.1277Z" fill="white"/>
<path id="Vector_46" d="M41.9874 4.43312C42.0555 4.46518 42.1161 4.51109 42.1654 4.56791C42.2146 4.62474 42.2515 4.69122 42.2736 4.76311C42.2958 4.83499 42.3026 4.91071 42.2938 4.9854C42.285 5.0601 42.2607 5.13214 42.2224 5.1969C42.1647 5.28112 42.0827 5.34585 41.9874 5.38256C41.8792 5.4291 41.7621 5.45155 41.6443 5.44836H41.3435V5.85963H40.998V4.36732H41.6443C41.762 4.36528 41.8789 4.38768 41.9874 4.43312ZM41.8605 5.10055C41.8879 5.07722 41.9095 5.04793 41.9238 5.01493C41.938 4.98193 41.9445 4.9461 41.9428 4.91019C41.9453 4.87351 41.9391 4.83675 41.9249 4.80287C41.9106 4.769 41.8885 4.73894 41.8605 4.71513C41.7922 4.66665 41.7091 4.64339 41.6255 4.64933H41.3459V5.16635H41.6255C41.7067 5.17066 41.787 5.14747 41.8535 5.10055H41.8605Z" fill="white"/>
<path id="Vector_47" d="M42.7235 5.79974C42.6266 5.75417 42.545 5.68153 42.4885 5.59058C42.4346 5.49778 42.4063 5.39238 42.4062 5.28507C42.4063 5.17777 42.4346 5.07237 42.4885 4.97956C42.5457 4.88921 42.6271 4.81674 42.7235 4.7704C42.8245 4.72099 42.9354 4.69531 43.0478 4.69531C43.1602 4.69531 43.2711 4.72099 43.3721 4.7704C43.4425 4.80771 43.5046 4.85883 43.5548 4.92071C43.6049 4.98258 43.6421 5.05394 43.664 5.13052C43.686 5.20709 43.6922 5.2873 43.6825 5.36635C43.6727 5.4454 43.6471 5.52167 43.6071 5.59058C43.5502 5.68118 43.4687 5.75373 43.3721 5.79974C43.2711 5.84915 43.1602 5.87483 43.0478 5.87483C42.9354 5.87483 42.8245 5.84915 42.7235 5.79974ZM43.257 5.51538C43.3125 5.44965 43.3429 5.3664 43.3429 5.28037C43.3429 5.19434 43.3125 5.11109 43.257 5.04536C43.2304 5.01672 43.1979 4.99413 43.1618 4.97913C43.1258 4.96413 43.0869 4.95706 43.0478 4.95841C43.0084 4.95718 42.9692 4.96429 42.9328 4.97928C42.8963 4.99426 42.8634 5.01678 42.8363 5.04536C42.7808 5.11109 42.7503 5.19434 42.7503 5.28037C42.7503 5.3664 42.7808 5.44965 42.8363 5.51538C42.8634 5.54396 42.8963 5.56648 42.9328 5.58147C42.9692 5.59645 43.0084 5.60356 43.0478 5.60234C43.0874 5.6028 43.1266 5.59463 43.1627 5.5784C43.1989 5.56216 43.231 5.53825 43.257 5.50833V5.51538Z" fill="white"/>
<path id="Vector_48" d="M44.8686 4.76869C44.9561 4.81617 45.028 4.88801 45.0754 4.9755C45.1249 5.07142 45.1507 5.17778 45.1507 5.28571C45.1507 5.39364 45.1249 5.5 45.0754 5.59593C45.028 5.68341 44.9561 5.75525 44.8686 5.80273C44.7804 5.85208 44.6807 5.87721 44.5796 5.87559C44.5153 5.87966 44.4509 5.86933 44.3912 5.84534C44.3314 5.82135 44.2777 5.78431 44.2341 5.73693V6.27275H43.9004V4.71229H44.2176V4.84389C44.2627 4.79324 44.3187 4.75356 44.3814 4.72789C44.4442 4.70223 44.5119 4.69126 44.5796 4.69584C44.6807 4.69421 44.7804 4.71934 44.8686 4.76869ZM44.73 5.51602C44.7855 5.45029 44.8159 5.36704 44.8159 5.28101C44.8159 5.19498 44.7855 5.11173 44.73 5.046C44.6745 4.99061 44.5992 4.9595 44.5208 4.9595C44.4424 4.9595 44.3672 4.99061 44.3117 5.046C44.2562 5.11173 44.2257 5.19498 44.2257 5.28101C44.2257 5.36704 44.2562 5.45029 44.3117 5.51602C44.3672 5.57142 44.4424 5.60253 44.5208 5.60253C44.5992 5.60253 44.6745 5.57142 44.73 5.51602Z" fill="white"/>
<path id="Vector_49" d="M46.5267 4.71182V5.85867H46.2165V5.72237C46.1729 5.77166 46.1192 5.81095 46.059 5.83752C45.9964 5.86327 45.9293 5.87606 45.8616 5.87512C45.7961 5.87856 45.7305 5.8689 45.6688 5.8467C45.6071 5.82451 45.5504 5.79023 45.502 5.74587C45.4555 5.69366 45.4199 5.63266 45.3973 5.56647C45.3747 5.50027 45.3655 5.43023 45.3704 5.36045V4.71182H45.7041V5.3111C45.7041 5.49676 45.7817 5.58841 45.9392 5.58841C45.9746 5.58977 46.0099 5.58356 46.0427 5.57018C46.0755 5.55681 46.1051 5.53658 46.1295 5.51086C46.1837 5.44513 46.2099 5.36071 46.2024 5.27585V4.70947L46.5267 4.71182Z" fill="white"/>
<path id="Vector_50" d="M46.8359 4.27734H47.1696V5.85896H46.8359V4.27734Z" fill="white"/>
<path id="Vector_51" d="M48.3484 4.82218C48.3996 4.87111 48.4391 4.93097 48.4639 4.99731C48.4887 5.06364 48.4983 5.13472 48.4917 5.20525V5.85858H48.1815V5.71522C48.1433 5.77131 48.0905 5.81587 48.0288 5.84404C47.967 5.87222 47.8988 5.88293 47.8314 5.87503C47.7507 5.87796 47.6703 5.8627 47.5964 5.83038C47.5365 5.80434 47.4852 5.76199 47.4483 5.70817C47.4143 5.65395 47.3964 5.59121 47.3966 5.52722C47.3953 5.47857 47.4057 5.43032 47.427 5.38656C47.4483 5.34279 47.4797 5.30478 47.5188 5.27575C47.6296 5.20641 47.7597 5.1743 47.8901 5.1841H48.1533C48.1551 5.15318 48.1501 5.12225 48.1388 5.09344C48.1274 5.06463 48.1099 5.03863 48.0875 5.01724C48.0309 4.97467 47.9608 4.95382 47.8901 4.95849C47.8285 4.95814 47.7673 4.96848 47.7092 4.98904C47.6547 5.00558 47.6038 5.03186 47.5588 5.0666L47.4412 4.83158C47.5092 4.78467 47.5847 4.7497 47.6645 4.72818C47.7527 4.70464 47.8435 4.69278 47.9348 4.69293C48.084 4.68221 48.2318 4.72839 48.3484 4.82218ZM48.0664 5.61182C48.1102 5.58614 48.1428 5.54509 48.158 5.49666V5.37916H47.923C47.7867 5.37916 47.7186 5.42381 47.7186 5.51311C47.7177 5.53299 47.722 5.55274 47.7311 5.57045C47.7402 5.58816 47.7536 5.60322 47.7703 5.61417C47.8101 5.64179 47.8582 5.65505 47.9066 5.65177C47.9626 5.6548 48.0183 5.64088 48.0664 5.61182Z" fill="white"/>
<path id="Vector_52" d="M49.2708 4.73773C49.3456 4.70825 49.4255 4.69387 49.5058 4.69543V5.00094H49.4306C49.3899 4.99857 49.3492 5.00443 49.3108 5.01816C49.2725 5.03189 49.2373 5.05321 49.2074 5.08084C49.1785 5.11244 49.1563 5.14956 49.1422 5.18994C49.1281 5.23033 49.1223 5.27316 49.1251 5.31585V5.85638H48.8008V4.70953H49.118V4.85993C49.1575 4.80666 49.2102 4.76456 49.2708 4.73773Z" fill="white"/>
<path id="Vector_53" d="M20.6694 66.057C20.3935 65.9108 20.1633 65.6912 20.0043 65.4224C19.8441 65.144 19.7598 64.8283 19.7598 64.5071C19.7598 64.1858 19.8441 63.8702 20.0043 63.5917C20.1641 63.3242 20.3941 63.1056 20.6694 62.9595C20.9411 62.8225 21.239 62.7453 21.543 62.7331C21.8471 62.721 22.1502 62.7741 22.432 62.889C22.6671 62.989 22.875 63.1437 23.0383 63.3402L22.5283 63.8103C22.4235 63.6828 22.2913 63.5805 22.1416 63.5109C21.9919 63.4414 21.8285 63.4063 21.6635 63.4084C21.4649 63.405 21.2688 63.4536 21.0948 63.5494C20.9304 63.6398 20.7951 63.7751 20.7046 63.9395C20.6136 64.1153 20.566 64.3103 20.566 64.5082C20.566 64.7062 20.6136 64.9012 20.7046 65.077C20.7957 65.2409 20.9308 65.376 21.0948 65.4671C21.269 65.562 21.4651 65.6098 21.6635 65.6057C21.8289 65.6084 21.9927 65.5733 22.1425 65.5033C22.2923 65.4333 22.4243 65.3301 22.5283 65.2015L23.0383 65.6715C22.8748 65.87 22.6661 66.0264 22.4296 66.1275C22.1729 66.2346 21.897 66.2881 21.6188 66.2849C21.2884 66.2887 20.9621 66.2104 20.6694 66.057Z" fill="white"/>
<path id="Vector_54" d="M25.9124 63.8408C26.0201 63.958 26.1027 64.096 26.1548 64.2464C26.207 64.3968 26.2276 64.5563 26.2155 64.715V66.2262H25.4494V64.8325C25.4615 64.6646 25.4132 64.4979 25.3131 64.3625C25.2618 64.3091 25.1995 64.2675 25.1305 64.2407C25.0615 64.214 24.9874 64.2026 24.9136 64.2074C24.8268 64.2023 24.74 64.2158 24.659 64.247C24.5779 64.2782 24.5044 64.3264 24.4435 64.3884C24.319 64.5361 24.2574 64.7268 24.272 64.9195V66.2262H23.5059V62.5835H24.272V63.8596C24.3763 63.7552 24.5023 63.675 24.641 63.6246C24.7915 63.5698 24.9508 63.5427 25.111 63.5447C25.2577 63.5369 25.4044 63.5591 25.5422 63.61C25.68 63.6609 25.806 63.7395 25.9124 63.8408Z" fill="white"/>
<path id="Vector_55" d="M27.4475 66.0892C27.2325 65.9796 27.0526 65.8119 26.9282 65.6051C26.8015 65.3921 26.7371 65.1479 26.7425 64.9001C26.7379 64.6524 26.8022 64.4083 26.9282 64.1951C27.0534 63.9896 27.2332 63.8228 27.4475 63.7133C27.6784 63.5942 27.9352 63.5344 28.1949 63.5394C28.4538 63.5341 28.71 63.5939 28.9398 63.7133C29.1535 63.8228 29.3325 63.9896 29.4569 64.1951C29.5829 64.4083 29.6471 64.6524 29.6425 64.9001C29.6479 65.1479 29.5836 65.3921 29.4569 65.6051C29.3333 65.8117 29.1541 65.9795 28.9398 66.0892C28.71 66.2086 28.4538 66.2684 28.1949 66.2631C27.9352 66.2681 27.6784 66.2083 27.4475 66.0892ZM28.679 65.4383C28.8007 65.2871 28.867 65.0989 28.867 64.9048C28.867 64.7107 28.8007 64.5225 28.679 64.3713C28.6167 64.3063 28.5414 64.2551 28.4579 64.2211C28.3745 64.1871 28.2849 64.171 28.1949 64.1739C28.1045 64.1714 28.0147 64.1876 27.9309 64.2216C27.8472 64.2556 27.7714 64.3066 27.7084 64.3713C27.5855 64.5219 27.5183 64.7104 27.5183 64.9048C27.5183 65.0992 27.5855 65.2877 27.7084 65.4383C27.7714 65.503 27.8472 65.554 27.9309 65.588C28.0147 65.622 28.1045 65.6382 28.1949 65.6357C28.2851 65.6383 28.3748 65.6219 28.4582 65.5874C28.5416 65.553 28.6169 65.5014 28.679 65.4359V65.4383Z" fill="white"/>
<path id="Vector_56" d="M30.66 66.0894C30.4457 65.9797 30.2666 65.8119 30.143 65.6053C30.0163 65.3923 29.952 65.148 29.9573 64.9003C29.9527 64.6526 30.017 64.4085 30.143 64.1952C30.2673 63.9898 30.4463 63.823 30.66 63.7135C30.8938 63.5994 31.1522 63.5453 31.4121 63.556C31.671 63.5508 31.9272 63.6106 32.157 63.7299C32.3696 63.8402 32.5476 64.0069 32.6717 64.2117C32.7977 64.425 32.862 64.6691 32.8574 64.9167C32.8627 65.1645 32.7984 65.4088 32.6717 65.6218C32.5484 65.8278 32.3702 65.9954 32.157 66.1059C31.9272 66.2252 31.671 66.285 31.4121 66.2798C31.1494 66.2803 30.8908 66.2149 30.66 66.0894ZM31.8821 65.4361C32.005 65.2855 32.0721 65.097 32.0721 64.9026C32.0721 64.7082 32.005 64.5198 31.8821 64.3692C31.8202 64.3042 31.7453 64.253 31.6623 64.219C31.5793 64.185 31.49 64.1689 31.4003 64.1717C31.3099 64.1688 31.2199 64.1848 31.1361 64.2188C31.0523 64.2528 30.9766 64.304 30.9138 64.3692C30.7892 64.519 30.721 64.7077 30.721 64.9026C30.721 65.0975 30.7892 65.2863 30.9138 65.4361C30.9766 65.5012 31.0523 65.5524 31.1361 65.5864C31.2199 65.6204 31.3099 65.6365 31.4003 65.6335C31.49 65.6364 31.5793 65.6203 31.6623 65.5863C31.7453 65.5523 31.8202 65.5011 31.8821 65.4361Z" fill="white"/>
<path id="Vector_57" d="M33.6099 66.183C33.4331 66.1425 33.264 66.0734 33.1094 65.9786L33.3655 65.4287C33.4974 65.5112 33.6407 65.5737 33.7909 65.6143C33.9506 65.6603 34.1159 65.684 34.2821 65.6848C34.6064 65.6848 34.7685 65.6065 34.7685 65.4498C34.7674 65.4117 34.7536 65.3752 34.7293 65.3458C34.7051 65.3164 34.6717 65.296 34.6346 65.2877C34.5033 65.2444 34.3678 65.2152 34.2304 65.2007C34.0494 65.1753 33.8704 65.1376 33.6945 65.0879C33.5545 65.043 33.4289 64.9619 33.3303 64.8529C33.2745 64.7888 33.232 64.7142 33.2054 64.6335C33.1788 64.5528 33.1685 64.4676 33.1752 64.3829C33.1733 64.2228 33.2245 64.0666 33.3209 63.9387C33.4295 63.8003 33.5755 63.6959 33.7416 63.6379C33.9515 63.5613 34.1738 63.5246 34.3972 63.5298C34.5846 63.5292 34.7714 63.5497 34.9542 63.5909C35.1153 63.6216 35.2701 63.6787 35.4125 63.7601L35.1587 64.3053C34.9266 64.1739 34.664 64.1058 34.3972 64.1079C34.2706 64.1007 34.144 64.1241 34.0283 64.1761C33.9937 64.1915 33.9641 64.216 33.9425 64.2471C33.921 64.2782 33.9084 64.3146 33.9061 64.3523C33.9055 64.3919 33.9185 64.4304 33.9429 64.4616C33.9672 64.4928 34.0015 64.5148 34.04 64.5239C34.1768 64.5691 34.3177 64.6006 34.4607 64.6179C34.6398 64.6458 34.8172 64.6843 34.9918 64.733C35.1285 64.7746 35.2518 64.8516 35.349 64.9563C35.4566 65.0811 35.5114 65.243 35.5018 65.4075C35.5029 65.5657 35.4507 65.7197 35.3537 65.8446C35.2412 65.982 35.0921 66.0846 34.9237 66.1407C34.7093 66.2155 34.4832 66.2513 34.2562 66.2465C34.039 66.2529 33.8218 66.2316 33.6099 66.183Z" fill="white"/>
<path id="Vector_58" d="M38.5418 65.1214H36.5465C36.5783 65.2784 36.6692 65.4172 36.8003 65.5091C36.9484 65.6072 37.1234 65.6566 37.3009 65.6502C37.4259 65.6531 37.5503 65.6323 37.6675 65.5891C37.7781 65.5452 37.8788 65.4797 37.9636 65.3963L38.3702 65.8382C38.2315 65.985 38.062 66.0993 37.8739 66.1729C37.6857 66.2464 37.4836 66.2774 37.2821 66.2635C37.008 66.2697 36.7364 66.21 36.4901 66.0896C36.2711 65.9823 36.0875 65.8143 35.9614 65.6055C35.8347 65.3925 35.7703 65.1482 35.7757 64.9005C35.7716 64.6532 35.835 64.4094 35.959 64.1954C36.0793 63.9904 36.2543 63.8228 36.4643 63.7113C36.6852 63.5928 36.9328 63.533 37.1834 63.5374C37.4288 63.5324 37.6714 63.5898 37.8884 63.7043C38.0947 63.8102 38.2661 63.9734 38.382 64.1743C38.5047 64.3954 38.5664 64.6453 38.5606 64.8981C38.5606 64.8981 38.5512 64.9945 38.5418 65.1214ZM36.751 64.273C36.6303 64.3745 36.5529 64.5182 36.5348 64.6749H37.8367C37.8169 64.5187 37.7393 64.3757 37.6192 64.2739C37.4992 64.1721 37.3454 64.119 37.1881 64.1249C37.0293 64.1197 36.8739 64.1723 36.751 64.273Z" fill="white"/>
<path id="Vector_59" d="M8.39432 36.0995C8.30759 36.1001 8.22378 36.0682 8.15931 36.0102L7.21927 35.1759C7.18406 35.1456 7.15524 35.1085 7.13449 35.0669C7.11374 35.0254 7.10148 34.9801 7.09842 34.9337C7.09535 34.8873 7.10156 34.8408 7.11666 34.7968C7.13176 34.7529 7.15545 34.7124 7.18637 34.6777C7.24853 34.6118 7.33355 34.5721 7.424 34.5669C7.51445 34.5616 7.60348 34.5912 7.67284 34.6495L8.36142 35.2558L9.78793 33.6812C9.85171 33.6175 9.93747 33.5807 10.0276 33.5783C10.1177 33.5758 10.2053 33.608 10.2724 33.6682C10.3395 33.7284 10.381 33.812 10.3884 33.9018C10.3958 33.9917 10.3684 34.0809 10.312 34.1513L8.65048 35.9843C8.61805 36.0202 8.57854 36.0489 8.53446 36.0687C8.49037 36.0885 8.44266 36.099 8.39432 36.0995Z" fill="#03A6A9"/>
<path id="Vector_60" d="M8.39729 43.6198C8.31083 43.6213 8.22698 43.5902 8.16228 43.5329L7.22224 42.6962C7.18752 42.6654 7.15922 42.628 7.13895 42.5862C7.11869 42.5444 7.10685 42.499 7.10413 42.4526C7.1014 42.4062 7.10783 42.3598 7.12305 42.3159C7.13828 42.272 7.162 42.2315 7.19286 42.1968C7.22373 42.1621 7.26113 42.1338 7.30293 42.1135C7.34472 42.0933 7.3901 42.0814 7.43647 42.0787C7.53013 42.0732 7.62214 42.1051 7.69226 42.1674L8.38084 42.7738L9.80735 41.1969C9.87113 41.1331 9.95689 41.0963 10.047 41.0939C10.1371 41.0915 10.2247 41.1236 10.2918 41.1838C10.3589 41.244 10.4004 41.3276 10.4078 41.4175C10.4152 41.5073 10.3878 41.5966 10.3314 41.6669L8.66991 43.5C8.63617 43.5389 8.59422 43.5698 8.54707 43.5905C8.49993 43.6113 8.44877 43.6213 8.39729 43.6198Z" fill="#03A6A9"/>
<path id="Vector_61" d="M8.39729 51.1428C8.31056 51.1433 8.22674 51.1115 8.16228 51.0535L7.22224 50.2192C7.18752 50.1883 7.15922 50.1509 7.13895 50.1091C7.11869 50.0673 7.10685 50.0219 7.10413 49.9756C7.1014 49.9292 7.10783 49.8827 7.12305 49.8388C7.13828 49.795 7.162 49.7545 7.19286 49.7198C7.22373 49.6851 7.26113 49.6568 7.30293 49.6365C7.34472 49.6162 7.3901 49.6044 7.43647 49.6017C7.53013 49.5961 7.62214 49.6281 7.69226 49.6904L8.38084 50.2944L9.80735 48.7198C9.87113 48.6561 9.95689 48.6192 10.047 48.6168C10.1371 48.6144 10.2247 48.6466 10.2918 48.7068C10.3589 48.767 10.4004 48.8506 10.4078 48.9404C10.4152 49.0303 10.3878 49.1195 10.3314 49.1898L8.66991 51.0229C8.63607 51.0617 8.59409 51.0925 8.54697 51.1133C8.49985 51.134 8.44875 51.144 8.39729 51.1428Z" fill="#03A6A9"/>
<path id="Vector_62" d="M31.5477 8.45312L32.4901 10.3614L34.5958 10.6669L33.0729 12.1522L33.4325 14.2485L31.5477 13.2591L29.6653 14.2485L30.0248 12.1522L28.502 10.6669L30.6076 10.3614L31.5477 8.45312Z" fill="white"/>
<path id="Vector_63" d="M27.8871 8.45312L29.1326 10.9748L31.9151 11.379L29.9011 13.3413L30.3758 16.1121L27.8871 14.8031L25.4006 16.1121L25.8754 13.3413L23.8613 11.379L26.6438 10.9748L27.8871 8.45312Z" fill="white"/>
<path id="Vector_64" d="M30.6823 16.5284L27.888 15.0619L25.0961 16.5284L25.6295 13.4215L23.3711 11.2195L26.492 10.7659L27.888 7.9458L29.2816 10.7659L32.4025 11.2195L30.1441 13.4192L30.6823 16.5284ZM24.3628 11.5368L26.1301 13.2617L25.7118 15.6964L27.8997 14.5449L30.0853 15.6964L29.66 13.2641L31.4272 11.5391L28.9831 11.1842L27.888 8.9681L26.7928 11.1819L24.3628 11.5368Z" fill="#03A6A9"/>
<path id="Vector_65" d="M55.5658 77.2244C55.5658 76.7309 55.5423 45.6837 55.5094 0.0658026L55.5658 0.122206H0.061105L0.122206 0.0611032C0.122206 28.9321 0.122206 55.6434 0.110455 77.2197L0.061105 77.1703L55.5729 77.2197L0.061105 77.269H0.0117512V77.2197C0.0117512 55.6434 0.0117505 28.9321 0 0.0611032V0H0.068155H55.5729H55.6175V0.0540532C55.587 45.6954 55.5658 76.7309 55.5658 77.2244Z" fill="#263238"/>
<path id="Vector_66" d="M28.4026 46.482C28.4026 46.482 27.5801 45.2459 29.2275 45.1777C30.8749 45.1096 38.9734 46.482 41.7183 47.8545L44.1201 49.3633L41.5185 54.51H35.5399C34.8536 54.51 32.9336 53.3349 34.7173 52.5218C34.7173 52.5218 32.9336 51.2857 34.581 50.2563C34.581 50.2563 33.2767 49.2951 34.6492 47.9908L28.4026 46.482Z" fill="#FFBF9D"/>
<path id="Vector_67" d="M42.1975 48.3647L55.8281 55.5044L60.9419 50.6115L67.0358 56.1013C67.0358 56.1013 60.996 63.1939 57.4967 63.812C53.9974 64.4301 40.3691 53.4715 40.3691 53.4715L42.1975 48.3647Z" fill="#FFBF9D"/>
<path id="Vector_68" d="M56.4985 26.4242L56.3716 26.4971C56.1736 26.5987 55.9624 26.6723 55.7441 26.7156C55.6403 26.7272 55.5374 26.746 55.4363 26.772C55.376 26.8047 55.3186 26.8424 55.2647 26.8849C54.891 27.1034 54.4163 27.1199 53.998 27.1739C53.528 27.2233 53.0227 27.2961 52.6561 27.5993C52.2895 27.9024 52.125 28.5064 52.4469 28.8566C52.2953 28.8591 52.1499 28.9168 52.0378 29.0189C51.9258 29.1211 51.8548 29.2605 51.8382 29.4112C51.8273 29.5628 51.8553 29.7147 51.9194 29.8524C51.9836 29.9902 52.0818 30.1093 52.2049 30.1985C52.454 30.3751 52.7464 30.4807 53.0509 30.504C52.8752 30.5335 52.7179 30.6302 52.6122 30.7736C52.5065 30.917 52.4607 31.0959 52.4845 31.2725C52.5163 31.4482 52.5923 31.6129 52.7054 31.7511C52.8184 31.8892 52.9649 31.9963 53.1308 32.0621C53.4634 32.1916 53.8205 32.2462 54.1766 32.2219C54.6358 32.2054 55.0956 32.2149 55.5538 32.2501C55.5538 32.2501 55.5538 32.7037 55.5538 32.9082C55.5538 33.1855 55.5538 32.9693 55.5538 32.9693C55.8018 33.1141 56.0693 33.2225 56.3481 33.2912C56.9662 33.4933 57.3657 33.6579 57.9227 33.8012C58.3386 33.9093 58.7475 33.961 58.9708 33.6814C59.509 33.0092 58.0942 32.0363 58.0942 32.0363C58.5102 31.8013 58.3974 30.4688 57.7793 30.2878C58.0848 30.1374 58.2775 30.1538 58.4585 29.8624C58.552 29.7194 58.6105 29.5564 58.6293 29.3865C58.6481 29.2167 58.6266 29.0448 58.5666 28.8848C58.5001 28.7275 58.3839 28.5963 58.2358 28.5114C58.0876 28.4265 57.9157 28.3926 57.7464 28.4148C57.9464 28.2426 58.0895 28.014 58.1571 27.759C58.2246 27.5039 58.2133 27.2344 58.1248 26.9859C58.0085 26.6891 57.7867 26.4455 57.502 26.302C57.3608 26.2307 57.208 26.1853 57.0508 26.1681C56.9917 26.1575 56.9312 26.1575 56.8722 26.1681C56.8459 26.1762 56.8212 26.189 56.7993 26.2057C56.6959 26.2597 56.6066 26.3514 56.4985 26.4242Z" fill="#FFBF9D"/>
<path id="Vector_69" d="M57.1578 24.8927C57.1534 24.7453 57.1174 24.6006 57.0521 24.4684C56.9868 24.3362 56.8938 24.2196 56.7794 24.1265C56.4927 23.9315 55.9757 23.955 55.6349 24.0302C55.6138 24.4438 55.6349 24.6529 55.6067 25.0666C55.6067 25.1535 55.6326 25.2217 55.5926 25.3016C55.4869 25.506 55.038 25.5366 54.8312 25.6423C54.6604 25.7461 54.5358 25.9113 54.483 26.104C54.4301 26.2967 54.4529 26.5023 54.5468 26.6787C54.6502 26.8502 54.8005 26.9885 54.98 27.0772C55.1595 27.1659 55.3607 27.2013 55.5597 27.1793C55.9603 27.1285 56.3274 26.9298 56.5891 26.6223C56.7976 26.3886 56.9558 26.1143 57.0536 25.8167C57.1515 25.5191 57.1869 25.2046 57.1578 24.8927Z" fill="#FFBF9D"/>
<path id="Vector_70" d="M57.8615 28.3918C57.8615 28.4247 56.6559 28.5563 55.1612 28.6832C53.6666 28.8101 52.4516 28.8877 52.4492 28.8524C52.4469 28.8172 53.6548 28.6879 55.1495 28.561C56.6442 28.4341 57.8592 28.3566 57.8615 28.3918Z" fill="#FF9A6C"/>
<path id="Vector_71" d="M57.8613 30.2788C57.6316 30.3492 57.3954 30.3964 57.1563 30.4198C56.5814 30.5054 56.0025 30.5619 55.4219 30.589C54.7404 30.6243 54.1246 30.6172 53.6781 30.589C53.4366 30.5902 53.1956 30.5666 52.959 30.5185C53.1987 30.4948 53.4399 30.4893 53.6805 30.5021C54.1246 30.5021 54.738 30.5021 55.4148 30.4598C56.0917 30.4175 56.7027 30.3728 57.1445 30.3282C57.382 30.2951 57.6215 30.2786 57.8613 30.2788Z" fill="#FF9A6C"/>
<path id="Vector_72" d="M57.8614 32.1239C57.6691 32.1784 57.4711 32.21 57.2715 32.2179C56.9049 32.2555 56.3972 32.2837 55.8356 32.2908C55.2739 32.2978 54.7663 32.2908 54.3997 32.2908C54.2001 32.3 54.0001 32.289 53.8027 32.2579C53.9985 32.219 54.1978 32.2009 54.3973 32.2038C54.7663 32.1874 55.2739 32.1803 55.8332 32.1709C56.3926 32.1615 56.9002 32.1498 57.2668 32.1333C57.4644 32.1136 57.6633 32.1104 57.8614 32.1239Z" fill="#FF9A6C"/>
<path id="Vector_73" d="M57.047 25.498C57.0928 25.654 57.0794 25.8214 57.0094 25.9681C56.8675 26.3219 56.5996 26.6107 56.2574 26.7789C56.0774 26.8751 55.8885 26.9538 55.6934 27.0139C55.5351 27.0699 55.3712 27.1085 55.2046 27.129C55.0862 27.1424 54.9669 27.115 54.8661 27.0515C54.798 27.0045 54.7792 26.9598 54.7839 26.9551C54.9053 27.0344 55.0517 27.0662 55.1952 27.0444C55.3554 27.0113 55.5126 26.965 55.6652 26.9058C55.852 26.8418 56.0335 26.7632 56.208 26.6707C56.5275 26.5136 56.7849 26.2537 56.9389 25.9328C56.9873 25.7913 57.0235 25.6458 57.047 25.498Z" fill="#FF9A6C"/>
</g>
</g>
</svg>
