<svg width="64" height="63" viewBox="0 0 64 63" fill="none" xmlns="http://www.w3.org/2000/svg">
<circle cx="32" cy="31.5" r="31.5" fill="#04C1C4" fill-opacity="0.09"/>
<path d="M43.8457 40.4381C41.4537 41.0535 38.9566 41.0237 36.5781 40.3513C34.1995 39.679 32.0137 38.3851 30.2164 36.5856C28.4191 34.786 27.0663 32.537 26.2794 30.0398C25.4924 27.5427 25.2957 24.8754 25.7069 22.2769C25.6444 22.3416 25.5783 22.4023 25.5092 22.4587C25.0192 22.8581 24.4067 23.0062 23.1817 23.3025L22.0704 23.5725C17.7654 24.6169 15.6129 25.1381 15.1002 26.9025C14.5892 28.665 16.0557 30.5044 18.9904 34.1812L19.7499 35.1319C20.5829 36.1762 21.0012 36.6994 21.1884 37.3444C21.3757 37.9912 21.3127 38.6887 21.1867 40.0819L21.0712 41.3512C20.6284 46.2581 20.4062 48.7106 21.7467 49.8C23.0872 50.8912 25.1032 49.8975 29.1317 47.9081L30.1764 47.3944C31.3209 46.8281 31.8932 46.5469 32.5004 46.5469C33.1077 46.5469 33.6799 46.8281 34.8262 47.3944L35.8674 47.9081C39.8977 49.8956 41.9137 50.8894 43.2524 49.8019C44.5947 48.7106 44.3724 46.2581 43.9297 41.3512L43.8457 40.4381Z" fill="#03A6A9"/>
<path opacity="0.5" d="M27.5177 19.14L26.9437 20.2425C26.3137 21.4537 25.9987 22.0594 25.5087 22.4587C25.5787 22.4025 25.6435 22.3425 25.7065 22.2769C25.2951 24.8756 25.4918 27.5431 26.2789 30.0405C27.066 32.5378 28.4188 34.787 30.2164 36.5866C32.0139 38.3862 34.2 39.68 36.5788 40.3522C38.9576 41.0244 41.4549 41.0539 43.847 40.4381L43.812 40.0819C43.6877 38.6887 43.6247 37.9912 43.812 37.3444C43.9992 36.6994 44.4157 36.1763 45.2505 35.1319L46.01 34.1813C48.9447 30.5063 50.4112 28.6669 49.8985 26.9025C49.3875 25.1381 47.235 24.615 42.93 23.5725L41.817 23.3025C40.5937 23.0062 39.9812 22.8581 39.4895 22.4587C38.9995 22.0594 38.6845 21.4537 38.0545 20.2425L37.4822 19.14C35.265 14.88 34.1572 12.75 32.5 12.75C30.8427 12.75 29.735 14.88 27.5177 19.14Z" fill="#04C1C4"/>
</svg>
