<svg width="50" height="24" viewBox="0 0 50 24" fill="none" xmlns="http://www.w3.org/2000/svg">
<path d="M50 12.3454C50 8.26217 48.2777 5.04022 44.9861 5.04022C41.6805 5.04022 39.6805 8.26228 39.6805 12.3136C39.6805 17.1145 42.0417 19.5389 45.4305 19.5389C47.0833 19.5389 48.3333 19.1083 49.2777 18.5022V15.3121C48.3334 15.8545 47.25 16.1895 45.875 16.1895C44.5277 16.1895 43.3333 15.6471 43.1806 13.765H49.9723C49.9723 13.5575 50 12.7282 50 12.3454ZM43.1389 10.8302C43.1389 9.02781 44.0973 8.27809 44.9723 8.27809C45.8194 8.27809 46.7223 9.02781 46.7223 10.8302H43.1389ZM34.3195 5.04022C32.9583 5.04022 32.0833 5.77391 31.5973 6.28441L31.4166 5.29548H28.3611V23.8932L31.8333 23.048L31.8473 18.5341C32.3473 18.9488 33.0833 19.5389 34.3056 19.5389C36.7917 19.5389 39.0556 17.2421 39.0556 12.1859C39.0417 7.56034 36.75 5.04022 34.3194 5.04022M33.486 16.0299C32.6666 16.0299 32.1804 15.695 31.8472 15.2803L31.8332 9.36269C32.1943 8.90019 32.6943 8.58123 33.486 8.58123C34.7499 8.58123 35.6249 10.2081 35.6249 12.2975C35.6249 14.4349 34.7638 16.0299 33.486 16.0299ZM23.5833 4.09918L27.0694 3.23787V0L23.5833 0.845383V4.09918ZM23.5833 5.3114H27.0694V19.2677H23.5833V5.3114ZM19.8473 6.49166L19.625 5.3114H16.625V19.2677H20.0973V9.80938C20.9166 8.58123 22.3056 8.80452 22.7361 8.97993V5.3114C22.2917 5.11996 20.6667 4.76905 19.8473 6.49166ZM12.9027 1.85024L9.51387 2.67959L9.5 15.4557C9.5 17.8164 11.0417 19.5548 13.0973 19.5548C14.2361 19.5548 15.0694 19.3156 15.5277 19.0285V15.7907C15.0834 15.998 12.8889 16.7317 12.8889 14.3711V8.70875H15.5277V5.3114H12.8889L12.9027 1.85024ZM3.51387 9.36269C3.51387 8.74071 3.9583 8.50138 4.69453 8.50138C5.75 8.50138 7.0833 8.86834 8.13887 9.52228V5.77391C6.98613 5.24759 5.84727 5.04022 4.69453 5.04022C1.875 5.04022 0 6.73099 0 9.55424C0 13.9563 5.27773 13.2546 5.27773 15.1527C5.27773 15.8863 4.72227 16.1256 3.94443 16.1256C2.7917 16.1256 1.31943 15.5833 0.152734 14.8496V18.6458C1.44443 19.2838 2.75 19.5548 3.94443 19.5548C6.8333 19.5548 8.81943 17.9121 8.81943 15.057C8.80557 10.3039 3.51387 11.1491 3.51387 9.36269Z" fill="#635BFF"/>
</svg>
